%TF.GenerationSoftware,KiCad,Pcbnew,(5.1.7)-1*%
%TF.CreationDate,2020-11-30T22:01:16+01:00*%
%TF.ProjectId,zerosensor,7a65726f-7365-46e7-936f-722e6b696361,rev?*%
%TF.SameCoordinates,PX761e28cPY7a7afb0*%
%TF.FileFunction,Legend,Bot*%
%TF.FilePolarity,Positive*%
%FSLAX46Y46*%
G04 Gerber Fmt 4.6, Leading zero omitted, Abs format (unit mm)*
G04 Created by KiCad (PCBNEW (5.1.7)-1) date 2020-11-30 22:01:16*
%MOMM*%
%LPD*%
G01*
G04 APERTURE LIST*
%ADD10C,0.150000*%
%TA.AperFunction,Profile*%
%ADD11C,0.050000*%
%TD*%
%ADD12C,0.120000*%
%ADD13C,0.300000*%
%ADD14C,0.100000*%
%ADD15C,0.450000*%
%ADD16C,0.800000*%
%ADD17C,0.200000*%
G04 APERTURE END LIST*
D10*
X-1979881Y62114286D02*
X-2027500Y62066667D01*
X-2075120Y61971429D01*
X-2075120Y61733334D01*
X-2027500Y61638096D01*
X-1979881Y61590477D01*
X-1884643Y61542858D01*
X-1789405Y61542858D01*
X-1646548Y61590477D01*
X-1075120Y62161905D01*
X-1075120Y61542858D01*
X-2075120Y60923810D02*
X-2075120Y60828572D01*
X-2027500Y60733334D01*
X-1979881Y60685715D01*
X-1884643Y60638096D01*
X-1694167Y60590477D01*
X-1456072Y60590477D01*
X-1265596Y60638096D01*
X-1170358Y60685715D01*
X-1122739Y60733334D01*
X-1075120Y60828572D01*
X-1075120Y60923810D01*
X-1122739Y61019048D01*
X-1170358Y61066667D01*
X-1265596Y61114286D01*
X-1456072Y61161905D01*
X-1694167Y61161905D01*
X-1884643Y61114286D01*
X-1979881Y61066667D01*
X-2027500Y61019048D01*
X-2075120Y60923810D01*
X-1979881Y60209524D02*
X-2027500Y60161905D01*
X-2075120Y60066667D01*
X-2075120Y59828572D01*
X-2027500Y59733334D01*
X-1979881Y59685715D01*
X-1884643Y59638096D01*
X-1789405Y59638096D01*
X-1646548Y59685715D01*
X-1075120Y60257143D01*
X-1075120Y59638096D01*
X-2075120Y59019048D02*
X-2075120Y58923810D01*
X-2027500Y58828572D01*
X-1979881Y58780953D01*
X-1884643Y58733334D01*
X-1694167Y58685715D01*
X-1456072Y58685715D01*
X-1265596Y58733334D01*
X-1170358Y58780953D01*
X-1122739Y58828572D01*
X-1075120Y58923810D01*
X-1075120Y59019048D01*
X-1122739Y59114286D01*
X-1170358Y59161905D01*
X-1265596Y59209524D01*
X-1456072Y59257143D01*
X-1694167Y59257143D01*
X-1884643Y59209524D01*
X-1979881Y59161905D01*
X-2027500Y59114286D01*
X-2075120Y59019048D01*
X-1006191Y62947620D02*
X-1006191Y63947620D01*
X-1244286Y63947620D01*
X-1387143Y63900000D01*
X-1482381Y63804762D01*
X-1530000Y63709524D01*
X-1577620Y63519048D01*
X-1577620Y63376191D01*
X-1530000Y63185715D01*
X-1482381Y63090477D01*
X-1387143Y62995239D01*
X-1244286Y62947620D01*
X-1006191Y62947620D01*
X-2434762Y63614286D02*
X-2434762Y62947620D01*
X-2006191Y63614286D02*
X-2006191Y63090477D01*
X-2053810Y62995239D01*
X-2149048Y62947620D01*
X-2291905Y62947620D01*
X-2387143Y62995239D01*
X-2434762Y63042858D01*
X-2910953Y63614286D02*
X-2910953Y62947620D01*
X-2910953Y63519048D02*
X-2958572Y63566667D01*
X-3053810Y63614286D01*
X-3196667Y63614286D01*
X-3291905Y63566667D01*
X-3339524Y63471429D01*
X-3339524Y62947620D01*
X-3815715Y62947620D02*
X-3815715Y63947620D01*
X-3910953Y63328572D02*
X-4196667Y62947620D01*
X-4196667Y63614286D02*
X-3815715Y63233334D01*
X-5006191Y62995239D02*
X-4910953Y62947620D01*
X-4720477Y62947620D01*
X-4625239Y62995239D01*
X-4577620Y63090477D01*
X-4577620Y63471429D01*
X-4625239Y63566667D01*
X-4720477Y63614286D01*
X-4910953Y63614286D01*
X-5006191Y63566667D01*
X-5053810Y63471429D01*
X-5053810Y63376191D01*
X-4577620Y63280953D01*
X-5625239Y62947620D02*
X-5530000Y62995239D01*
X-5482381Y63090477D01*
X-5482381Y63947620D01*
X-5958572Y62995239D02*
X-6053810Y62947620D01*
X-6244286Y62947620D01*
X-6339524Y62995239D01*
X-6387143Y63090477D01*
X-6387143Y63138096D01*
X-6339524Y63233334D01*
X-6244286Y63280953D01*
X-6101429Y63280953D01*
X-6006191Y63328572D01*
X-5958572Y63423810D01*
X-5958572Y63471429D01*
X-6006191Y63566667D01*
X-6101429Y63614286D01*
X-6244286Y63614286D01*
X-6339524Y63566667D01*
X-6672858Y63614286D02*
X-7053810Y63614286D01*
X-6815715Y63947620D02*
X-6815715Y63090477D01*
X-6863334Y62995239D01*
X-6958572Y62947620D01*
X-7053810Y62947620D01*
X-7768096Y62995239D02*
X-7672858Y62947620D01*
X-7482381Y62947620D01*
X-7387143Y62995239D01*
X-7339524Y63090477D01*
X-7339524Y63471429D01*
X-7387143Y63566667D01*
X-7482381Y63614286D01*
X-7672858Y63614286D01*
X-7768096Y63566667D01*
X-7815715Y63471429D01*
X-7815715Y63376191D01*
X-7339524Y63280953D01*
X-8244286Y62947620D02*
X-8244286Y63614286D01*
X-8244286Y63423810D02*
X-8291905Y63519048D01*
X-8339524Y63566667D01*
X-8434762Y63614286D01*
X-8530000Y63614286D01*
X-8863334Y63614286D02*
X-8863334Y62947620D01*
X-8863334Y63519048D02*
X-8910953Y63566667D01*
X-9006191Y63614286D01*
X-9149048Y63614286D01*
X-9244286Y63566667D01*
X-9291905Y63471429D01*
X-9291905Y62947620D01*
D11*
X-38727500Y65000000D02*
G75*
G03*
X-42227500Y61500000I0J-3500000D01*
G01*
X-38727500Y0D02*
G75*
G02*
X-42227500Y3500000I0J3500000D01*
G01*
X2500Y0D02*
X-16997500Y0D01*
X2500Y65000000D02*
X2500Y0D01*
X-16997500Y65000000D02*
X2500Y65000000D01*
X-42227500Y3500000D02*
X-42227500Y61500000D01*
X-16997500Y0D02*
X-38727500Y0D01*
X-38727500Y65000000D02*
X-16997500Y65000000D01*
D12*
%TO.C,JP5*%
X-9527500Y9150000D02*
X-9527500Y11950000D01*
X-10227500Y12600000D02*
X-10827500Y12600000D01*
X-11527500Y11950000D02*
X-11527500Y9150000D01*
X-10827500Y8500000D02*
X-10227500Y8500000D01*
X-10227500Y8500000D02*
G75*
G03*
X-9527500Y9200000I0J700000D01*
G01*
X-11527500Y9200000D02*
G75*
G03*
X-10827500Y8500000I700000J0D01*
G01*
X-10827500Y12600000D02*
G75*
G03*
X-11527500Y11900000I0J-700000D01*
G01*
X-9527500Y11900000D02*
G75*
G03*
X-10227500Y12600000I-700000J0D01*
G01*
%TO.C,U6*%
X-24352500Y22875000D02*
X-24352500Y24825000D01*
X-24352500Y22875000D02*
X-24352500Y20925000D01*
X-19232500Y22875000D02*
X-19232500Y24825000D01*
X-19232500Y22875000D02*
X-19232500Y19425000D01*
%TO.C,R21*%
X-23050436Y33410000D02*
X-24504564Y33410000D01*
X-23050436Y31590000D02*
X-24504564Y31590000D01*
%TO.C,R20*%
X-21750436Y31010000D02*
X-23204564Y31010000D01*
X-21750436Y29190000D02*
X-23204564Y29190000D01*
%TO.C,R19*%
X-22704564Y26790000D02*
X-21250436Y26790000D01*
X-22704564Y28610000D02*
X-21250436Y28610000D01*
%TO.C,U5*%
X-34617500Y40410000D02*
X-34617500Y39150000D01*
X-34617500Y33590000D02*
X-34617500Y34850000D01*
X-38377500Y40410000D02*
X-34617500Y40410000D01*
X-40627500Y33590000D02*
X-34617500Y33590000D01*
%TO.C,C8*%
X-38817500Y42676248D02*
X-38817500Y44098752D01*
X-40637500Y42676248D02*
X-40637500Y44098752D01*
D13*
%TO.C,REF\u002A\u002A*%
X-10427500Y43650000D02*
X-10427500Y41925000D01*
D14*
G36*
X-35677500Y51112500D02*
G01*
X-36452500Y51575000D01*
X-36952500Y51050000D01*
X-36452500Y50275000D01*
X-35677500Y51112500D01*
G37*
X-35677500Y51112500D02*
X-36452500Y51575000D01*
X-36952500Y51050000D01*
X-36452500Y50275000D01*
X-35677500Y51112500D01*
G36*
X-32465000Y50400000D02*
G01*
X-32002500Y51175000D01*
X-32527500Y51675000D01*
X-33327500Y51175000D01*
X-32465000Y50400000D01*
G37*
X-32465000Y50400000D02*
X-32002500Y51175000D01*
X-32527500Y51675000D01*
X-33327500Y51175000D01*
X-32465000Y50400000D01*
G36*
X-36415000Y48075000D02*
G01*
X-36877500Y47300000D01*
X-36352500Y46800000D01*
X-35615000Y47275000D01*
X-36415000Y48075000D01*
G37*
X-36415000Y48075000D02*
X-36877500Y47300000D01*
X-36352500Y46800000D01*
X-35615000Y47275000D01*
X-36415000Y48075000D01*
G36*
X-36627500Y49700000D02*
G01*
X-37527500Y49550000D01*
X-37527500Y48800000D01*
X-36627500Y48637500D01*
X-36627500Y49700000D01*
G37*
X-36627500Y49700000D02*
X-37527500Y49550000D01*
X-37527500Y48800000D01*
X-36627500Y48637500D01*
X-36627500Y49700000D01*
G36*
X-33927500Y51400000D02*
G01*
X-34077500Y52300000D01*
X-34827500Y52300000D01*
X-34990000Y51400000D01*
X-33927500Y51400000D01*
G37*
X-33927500Y51400000D02*
X-34077500Y52300000D01*
X-34827500Y52300000D01*
X-34990000Y51400000D01*
X-33927500Y51400000D01*
D15*
X-33502500Y47350000D02*
X-33775470Y48376604D01*
X-35077500Y48375000D02*
X-35352500Y47350000D01*
D14*
G36*
X-33227500Y47275000D02*
G01*
X-32452500Y46812500D01*
X-31952500Y47337500D01*
X-32427500Y48075000D01*
X-33227500Y47275000D01*
G37*
X-33227500Y47275000D02*
X-32452500Y46812500D01*
X-31952500Y47337500D01*
X-32427500Y48075000D01*
X-33227500Y47275000D01*
G36*
X-32227500Y48750000D02*
G01*
X-31327500Y48900000D01*
X-31327500Y49650000D01*
X-32227500Y49812500D01*
X-32227500Y48750000D01*
G37*
X-32227500Y48750000D02*
X-31327500Y48900000D01*
X-31327500Y49650000D01*
X-32227500Y49812500D01*
X-32227500Y48750000D01*
D16*
X-33376910Y48000516D02*
G75*
G03*
X-35477500Y48000000I-1050590J1199484D01*
G01*
D15*
X-33775469Y48376603D02*
G75*
G03*
X-35077500Y48375000I-652031J823397D01*
G01*
X-33501758Y47350371D02*
G75*
G03*
X-35352500Y47350000I-925742J1849629D01*
G01*
D13*
X-1827500Y56700000D02*
G75*
G03*
X-1827500Y56700000I-1500000J0D01*
G01*
X-9027500Y56700000D02*
G75*
G03*
X-9027500Y56700000I-1500000J0D01*
G01*
D17*
X-9552500Y56900000D02*
X-9827500Y56500000D01*
X-9827500Y56500000D02*
X-10102500Y56900000D01*
X-9552500Y56900000D02*
X-10102500Y56900000D01*
D13*
X-9829384Y56815153D02*
G75*
G03*
X-10152500Y56100000I-698116J-115153D01*
G01*
D14*
G36*
X-7352500Y56350000D02*
G01*
X-7152500Y56350000D01*
X-7152500Y55675000D01*
X-6702500Y55675000D01*
X-6702500Y56350000D01*
X-6502500Y56350000D01*
X-6502500Y57000000D01*
X-7352500Y57000000D01*
X-7352500Y56350000D01*
G37*
X-7352500Y56350000D02*
X-7152500Y56350000D01*
X-7152500Y55675000D01*
X-6702500Y55675000D01*
X-6702500Y56350000D01*
X-6502500Y56350000D01*
X-6502500Y57000000D01*
X-7352500Y57000000D01*
X-7352500Y56350000D01*
D13*
X-6777500Y57475000D02*
G75*
G03*
X-6777500Y57475000I-150000J0D01*
G01*
X-5427500Y56700000D02*
G75*
G03*
X-5427500Y56700000I-1500000J0D01*
G01*
D12*
%TO.C,D6*%
X-1785000Y15032000D02*
X-1785000Y18932000D01*
X-3785000Y15032000D02*
X-3785000Y18932000D01*
X-1785000Y15032000D02*
X-3785000Y15032000D01*
%TO.C,D5*%
X-22435000Y13432000D02*
X-22435000Y17732000D01*
X-20435000Y13432000D02*
X-22435000Y13432000D01*
X-20435000Y17732000D02*
X-20435000Y13432000D01*
%TO.C,D4*%
X-41435000Y13482000D02*
X-41435000Y17782000D01*
X-39435000Y13482000D02*
X-41435000Y13482000D01*
X-39435000Y17782000D02*
X-39435000Y13482000D01*
%TO.C,D3*%
X-41435000Y7882000D02*
X-41435000Y12182000D01*
X-39435000Y7882000D02*
X-41435000Y7882000D01*
X-39435000Y12182000D02*
X-39435000Y7882000D01*
%TO.C,D2*%
X-22435000Y7882000D02*
X-22435000Y12182000D01*
X-20435000Y7882000D02*
X-22435000Y7882000D01*
X-20435000Y12182000D02*
X-20435000Y7882000D01*
%TO.C,U4*%
X-30885000Y57622000D02*
X-24875000Y57622000D01*
X-28635000Y64442000D02*
X-24875000Y64442000D01*
X-24875000Y57622000D02*
X-24875000Y58882000D01*
X-24875000Y64442000D02*
X-24875000Y63182000D01*
%TO.C,C7*%
X-32025000Y61893252D02*
X-32025000Y60470748D01*
X-33845000Y61893252D02*
X-33845000Y60470748D01*
%TO.C,C5*%
X-32411248Y44497000D02*
X-32933752Y44497000D01*
X-32411248Y45967000D02*
X-32933752Y45967000D01*
%TO.C,C4*%
X-36158752Y32167000D02*
X-35636248Y32167000D01*
X-36158752Y30697000D02*
X-35636248Y30697000D01*
%TO.C,C3*%
X-32733752Y21117000D02*
X-32211248Y21117000D01*
X-32733752Y19647000D02*
X-32211248Y19647000D01*
%TO.C,C2*%
X-22170000Y54533248D02*
X-22170000Y55055752D01*
X-20700000Y54533248D02*
X-20700000Y55055752D01*
%TO.C,R18*%
X-26312064Y15192000D02*
X-24857936Y15192000D01*
X-26312064Y13372000D02*
X-24857936Y13372000D01*
%TO.C,R17*%
X-31707936Y13372000D02*
X-33162064Y13372000D01*
X-31707936Y15192000D02*
X-33162064Y15192000D01*
%TO.C,U3*%
X-25748000Y44781000D02*
X-27948000Y44781000D01*
X-25748000Y44781000D02*
X-23548000Y44781000D01*
X-25748000Y51551000D02*
X-27948000Y51551000D01*
X-25748000Y51551000D02*
X-22148000Y51551000D01*
%TO.C,U1*%
X-24605000Y5707000D02*
X-23105000Y5707000D01*
X-24605000Y5707000D02*
X-26105000Y5707000D01*
X-24605000Y2487000D02*
X-23105000Y2487000D01*
X-24605000Y2487000D02*
X-27530000Y2487000D01*
%TO.C,R8*%
X-27050000Y34304936D02*
X-27050000Y34759064D01*
X-28520000Y34304936D02*
X-28520000Y34759064D01*
%TO.C,R14*%
X-40270000Y28224064D02*
X-40270000Y27769936D01*
X-38800000Y28224064D02*
X-38800000Y27769936D01*
%TO.C,R13*%
X-40270000Y24382064D02*
X-40270000Y23927936D01*
X-38800000Y24382064D02*
X-38800000Y23927936D01*
%TO.C,R7*%
X-29100000Y34304936D02*
X-29100000Y34759064D01*
X-30570000Y34304936D02*
X-30570000Y34759064D01*
%TO.C,U2*%
X-28078000Y25306000D02*
X-28078000Y23106000D01*
X-28078000Y25306000D02*
X-28078000Y27506000D01*
X-34848000Y25306000D02*
X-34848000Y23106000D01*
X-34848000Y25306000D02*
X-34848000Y28906000D01*
%TO.C,C1*%
X-20920000Y3938748D02*
X-20920000Y4461252D01*
X-19450000Y3938748D02*
X-19450000Y4461252D01*
%TO.C,R12*%
X-31707936Y9142000D02*
X-33162064Y9142000D01*
X-31707936Y7322000D02*
X-33162064Y7322000D01*
%TO.C,R11*%
X-26312064Y7322000D02*
X-24857936Y7322000D01*
X-26312064Y9142000D02*
X-24857936Y9142000D01*
%TO.C,R10*%
X-31937500Y5009064D02*
X-31937500Y3554936D01*
X-30117500Y5009064D02*
X-30117500Y3554936D01*
%TO.C,R9*%
X-34695000Y5009064D02*
X-34695000Y3554936D01*
X-32875000Y5009064D02*
X-32875000Y3554936D01*
%TO.C,Q1*%
X-2493000Y4788000D02*
X-2493000Y3858000D01*
X-2493000Y1628000D02*
X-2493000Y2558000D01*
X-2493000Y1628000D02*
X-4653000Y1628000D01*
X-2493000Y4788000D02*
X-3953000Y4788000D01*
%TO.C,R6*%
X-4472936Y50727000D02*
X-5927064Y50727000D01*
X-4472936Y48907000D02*
X-5927064Y48907000D01*
%TO.C,R5*%
X-5927064Y31762000D02*
X-4472936Y31762000D01*
X-5927064Y33582000D02*
X-4472936Y33582000D01*
%TO.C,R3*%
X-3671000Y25245064D02*
X-3671000Y23790936D01*
X-1851000Y25245064D02*
X-1851000Y23790936D01*
%TO.C,R2*%
X-10945000Y5409064D02*
X-10945000Y3954936D01*
X-9125000Y5409064D02*
X-9125000Y3954936D01*
%TO.C,R1*%
X-2175000Y7254936D02*
X-2175000Y8709064D01*
X-3995000Y7254936D02*
X-3995000Y8709064D01*
%TO.C,Q2*%
X-4010000Y20780000D02*
X-4010000Y19280000D01*
X-4010000Y19280000D02*
X-4280000Y19280000D01*
X-4280000Y19280000D02*
X-4280000Y16450000D01*
X-10910000Y20780000D02*
X-10910000Y19280000D01*
X-10910000Y19280000D02*
X-10640000Y19280000D01*
X-10640000Y19280000D02*
X-10640000Y18180000D01*
%TD*%
%TO.C,JP5*%
D10*
X-11075120Y8133334D02*
X-11075120Y7514286D01*
X-10694167Y7847620D01*
X-10694167Y7704762D01*
X-10646548Y7609524D01*
X-10598929Y7561905D01*
X-10503691Y7514286D01*
X-10265596Y7514286D01*
X-10170358Y7561905D01*
X-10122739Y7609524D01*
X-10075120Y7704762D01*
X-10075120Y7990477D01*
X-10122739Y8085715D01*
X-10170358Y8133334D01*
X-11175120Y13261905D02*
X-11175120Y13738096D01*
X-10698929Y13785715D01*
X-10746548Y13738096D01*
X-10794167Y13642858D01*
X-10794167Y13404762D01*
X-10746548Y13309524D01*
X-10698929Y13261905D01*
X-10603691Y13214286D01*
X-10365596Y13214286D01*
X-10270358Y13261905D01*
X-10222739Y13309524D01*
X-10175120Y13404762D01*
X-10175120Y13642858D01*
X-10222739Y13738096D01*
X-10270358Y13785715D01*
%TO.C,REF\u002A\u002A*%
D13*
X-10623929Y47073572D02*
X-12123929Y47073572D01*
X-10695358Y47073572D02*
X-10623929Y47216429D01*
X-10623929Y47502143D01*
X-10695358Y47645000D01*
X-10766786Y47716429D01*
X-10909643Y47787858D01*
X-11338215Y47787858D01*
X-11481072Y47716429D01*
X-11552500Y47645000D01*
X-11623929Y47502143D01*
X-11623929Y47216429D01*
X-11552500Y47073572D01*
X-10623929Y45716429D02*
X-11409643Y45716429D01*
X-11552500Y45787858D01*
X-11623929Y45930715D01*
X-11623929Y46216429D01*
X-11552500Y46359286D01*
X-10695358Y45716429D02*
X-10623929Y45859286D01*
X-10623929Y46216429D01*
X-10695358Y46359286D01*
X-10838215Y46430715D01*
X-10981072Y46430715D01*
X-11123929Y46359286D01*
X-11195358Y46216429D01*
X-11195358Y45859286D01*
X-11266786Y45716429D01*
X-10695358Y45073572D02*
X-10623929Y44930715D01*
X-10623929Y44645000D01*
X-10695358Y44502143D01*
X-10838215Y44430715D01*
X-10909643Y44430715D01*
X-11052500Y44502143D01*
X-11123929Y44645000D01*
X-11123929Y44859286D01*
X-11195358Y45002143D01*
X-11338215Y45073572D01*
X-11409643Y45073572D01*
X-11552500Y45002143D01*
X-11623929Y44859286D01*
X-11623929Y44645000D01*
X-11552500Y44502143D01*
X-10623929Y41097858D02*
X-12123929Y41097858D01*
X-10623929Y40455000D02*
X-11409643Y40455000D01*
X-11552500Y40526429D01*
X-11623929Y40669286D01*
X-11623929Y40883572D01*
X-11552500Y41026429D01*
X-11481072Y41097858D01*
X-10623929Y39097858D02*
X-11409643Y39097858D01*
X-11552500Y39169286D01*
X-11623929Y39312143D01*
X-11623929Y39597858D01*
X-11552500Y39740715D01*
X-10695358Y39097858D02*
X-10623929Y39240715D01*
X-10623929Y39597858D01*
X-10695358Y39740715D01*
X-10838215Y39812143D01*
X-10981072Y39812143D01*
X-11123929Y39740715D01*
X-11195358Y39597858D01*
X-11195358Y39240715D01*
X-11266786Y39097858D01*
X-10623929Y38383572D02*
X-12123929Y38383572D01*
X-11552500Y38383572D02*
X-11623929Y38240715D01*
X-11623929Y37955000D01*
X-11552500Y37812143D01*
X-11481072Y37740715D01*
X-11338215Y37669286D01*
X-10909643Y37669286D01*
X-10766786Y37740715D01*
X-10695358Y37812143D01*
X-10623929Y37955000D01*
X-10623929Y38240715D01*
X-10695358Y38383572D01*
X-10623929Y37026429D02*
X-11623929Y37026429D01*
X-12123929Y37026429D02*
X-12052500Y37097858D01*
X-11981072Y37026429D01*
X-12052500Y36955000D01*
X-12123929Y37026429D01*
X-11981072Y37026429D01*
X-11623929Y36526429D02*
X-11623929Y35955000D01*
X-12123929Y36312143D02*
X-10838215Y36312143D01*
X-10695358Y36240715D01*
X-10623929Y36097858D01*
X-10623929Y35955000D01*
X-10623929Y34812143D02*
X-11409643Y34812143D01*
X-11552500Y34883572D01*
X-11623929Y35026429D01*
X-11623929Y35312143D01*
X-11552500Y35455000D01*
X-10695358Y34812143D02*
X-10623929Y34955000D01*
X-10623929Y35312143D01*
X-10695358Y35455000D01*
X-10838215Y35526429D01*
X-10981072Y35526429D01*
X-11123929Y35455000D01*
X-11195358Y35312143D01*
X-11195358Y34955000D01*
X-11266786Y34812143D01*
X-11623929Y34312143D02*
X-11623929Y33740715D01*
X-12123929Y34097858D02*
X-10838215Y34097858D01*
X-10695358Y34026429D01*
X-10623929Y33883572D01*
X-10623929Y33740715D01*
D17*
X-3137024Y56242858D02*
X-3089405Y56195239D01*
X-2946548Y56147620D01*
X-2851310Y56147620D01*
X-2708453Y56195239D01*
X-2613215Y56290477D01*
X-2565596Y56385715D01*
X-2517977Y56576191D01*
X-2517977Y56719048D01*
X-2565596Y56909524D01*
X-2613215Y57004762D01*
X-2708453Y57100000D01*
X-2851310Y57147620D01*
X-2946548Y57147620D01*
X-3089405Y57100000D01*
X-3137024Y57052381D01*
X-4137024Y56242858D02*
X-4089405Y56195239D01*
X-3946548Y56147620D01*
X-3851310Y56147620D01*
X-3708453Y56195239D01*
X-3613215Y56290477D01*
X-3565596Y56385715D01*
X-3517977Y56576191D01*
X-3517977Y56719048D01*
X-3565596Y56909524D01*
X-3613215Y57004762D01*
X-3708453Y57100000D01*
X-3851310Y57147620D01*
X-3946548Y57147620D01*
X-4089405Y57100000D01*
X-4137024Y57052381D01*
%TD*%
M02*
