M48
; DRILL file {KiCad (5.1.7)-1} date 11/30/20 22:01:44
; FORMAT={-:-/ absolute / metric / decimal}
; #@! TF.CreationDate,2020-11-30T22:01:44+01:00
; #@! TF.GenerationSoftware,Kicad,Pcbnew,(5.1.7)-1
; #@! TF.FileFunction,Plated,1,2,PTH
FMAT,2
METRIC
T1C0.300
T2C0.400
T3C0.750
T4C0.900
T5C0.950
T6C1.000
T7C1.100
T8C1.200
T9C2.500
%
G90
G05
T1
X-9.746Y16.521
X-9.746Y17.521
X-9.485Y26.382
X-9.485Y21.482
X-9.448Y15.419
X-9.435Y23.882
X-8.673Y14.644
X-8.385Y25.082
X-7.973Y13.944
X-7.435Y20.882
X-7.435Y19.882
X-7.435Y18.882
X-7.435Y17.882
X-7.435Y16.882
X-7.385Y26.382
X-6.942Y15.925
X-6.435Y25.082
X-6.217Y15.2
X-5.492Y14.475
X-5.485Y23.882
X-5.473Y10.22
X-5.435Y26.382
X-5.435Y21.432
X-4.772Y10.919
X-4.767Y13.75
X-4.285Y12.782
X-4.285Y11.782
T2
X-40.678Y32.95
X-40.477Y10.5
X-40.427Y16.05
X-38.635Y14.282
X-38.427Y31.45
X-38.027Y46.5
X-38.027Y39.1
X-36.927Y32.9
X-34.685Y29.582
X-34.665Y62.112
X-34.51Y25.257
X-34.377Y58.425
X-33.977Y51.0
X-32.428Y5.832
X-31.627Y46.8
X-31.527Y36.8
X-31.435Y24.482
X-30.927Y16.0
X-30.785Y30.632
X-30.285Y46.932
X-30.185Y20.382
X-29.835Y29.857
X-28.128Y32.3
X-28.127Y58.175
X-27.185Y50.432
X-27.135Y12.532
X-26.735Y6.332
X-26.332Y35.246
X-25.928Y34.0
X-25.777Y1.875
X-25.527Y6.35
X-24.285Y49.132
X-24.285Y46.532
X-24.028Y1.8
X-24.027Y6.207
X-23.927Y12.5
X-23.924Y51.771
X-23.727Y22.1
X-22.828Y52.9
X-22.427Y23.5
X-22.227Y6.6
X-21.725Y33.864
X-21.492Y48.482
X-21.485Y45.882
X-21.428Y10.5
X-21.427Y16.05
X-21.035Y50.532
X-20.335Y56.882
X-19.635Y36.138
X-19.377Y18.5
X-19.027Y59.1
X-18.828Y53.0
X-18.828Y6.886
X-18.277Y5.8
X-13.127Y6.75
X-12.527Y64.0
X-10.027Y4.65
X-9.728Y13.0
X-2.485Y20.232
T3
X-28.035Y16.882
X-26.035Y16.882
X-24.035Y16.882
X-37.305Y28.004
X-37.305Y26.004
X-37.305Y24.004
X-37.305Y22.004
X-28.035Y10.832
X-26.035Y10.832
X-24.035Y10.832
X-25.875Y27.997
X-25.875Y25.997
X-25.875Y23.997
X-25.875Y21.997
X-37.985Y16.882
X-35.985Y16.882
X-33.985Y16.882
X-37.985Y10.832
X-35.985Y10.832
X-33.985Y10.832
T4
X-7.025Y60.7
X-4.485Y60.7
T5
X-37.305Y54.897
X-34.805Y54.897
X-32.305Y54.897
X-29.805Y54.897
X-27.305Y54.897
X-24.805Y54.897
X-37.305Y42.197
X-34.805Y42.197
X-32.305Y42.197
X-29.805Y42.197
X-27.305Y42.197
X-24.805Y42.197
T6
X-16.985Y56.675
X-16.985Y54.135
X-16.985Y51.595
X-16.985Y49.055
X-16.985Y46.515
X-16.985Y43.975
X-16.985Y41.435
X-16.985Y38.895
X-16.985Y36.355
X-16.985Y33.815
X-16.985Y31.275
X-16.985Y28.735
X-16.985Y26.195
X-16.985Y23.655
X-16.985Y21.115
X-16.985Y18.575
X-16.985Y16.035
X-16.985Y13.495
X-16.985Y10.955
X-16.985Y8.415
X-14.445Y56.675
X-14.445Y54.135
X-14.445Y51.595
X-14.445Y49.055
X-14.445Y46.515
X-14.445Y43.975
X-14.445Y41.435
X-14.445Y38.895
X-14.445Y36.355
X-14.445Y33.815
X-14.445Y31.275
X-14.445Y28.735
X-14.445Y26.195
X-14.445Y23.655
X-14.445Y21.115
X-14.445Y18.575
X-14.445Y16.035
X-14.445Y13.495
X-14.445Y10.955
X-14.445Y8.415
X-8.095Y42.832
X-8.095Y40.292
X-5.555Y42.832
X-5.555Y40.292
X-3.015Y42.832
X-3.015Y40.292
T7
X-8.095Y53.142
X-8.095Y46.642
X-3.595Y53.142
X-3.595Y46.642
X-8.095Y35.997
X-8.095Y29.497
X-3.595Y35.997
X-3.595Y29.497
T8
X-6.825Y12.367
X-6.825Y8.867
X-6.825Y5.367
T9
X-15.727Y61.501
X-15.727Y3.462
X-38.727Y61.501
X-38.727Y3.462
T0
M30
