%TF.GenerationSoftware,KiCad,Pcbnew,(5.1.7)-1*%
%TF.CreationDate,2020-11-30T22:01:16+01:00*%
%TF.ProjectId,zerosensor,7a65726f-7365-46e7-936f-722e6b696361,rev?*%
%TF.SameCoordinates,PX761e28cPY7a7afb0*%
%TF.FileFunction,Legend,Top*%
%TF.FilePolarity,Positive*%
%FSLAX46Y46*%
G04 Gerber Fmt 4.6, Leading zero omitted, Abs format (unit mm)*
G04 Created by KiCad (PCBNEW (5.1.7)-1) date 2020-11-30 22:01:16*
%MOMM*%
%LPD*%
G01*
G04 APERTURE LIST*
%ADD10C,0.150000*%
%TA.AperFunction,Profile*%
%ADD11C,0.050000*%
%TD*%
%ADD12C,0.120000*%
%ADD13C,0.300000*%
%ADD14C,0.100000*%
%ADD15C,0.450000*%
G04 APERTURE END LIST*
D10*
X-31625120Y13059524D02*
X-31625120Y12583334D01*
X-31148929Y12535715D01*
X-31196548Y12583334D01*
X-31244167Y12678572D01*
X-31244167Y12916667D01*
X-31196548Y13011905D01*
X-31148929Y13059524D01*
X-31053691Y13107143D01*
X-30815596Y13107143D01*
X-30720358Y13059524D01*
X-30672739Y13011905D01*
X-30625120Y12916667D01*
X-30625120Y12678572D01*
X-30672739Y12583334D01*
X-30720358Y12535715D01*
X-31625120Y13392858D02*
X-30625120Y13726191D01*
X-31625120Y14059524D01*
X-775120Y3552381D02*
X-1441786Y3552381D01*
X-1346548Y3552381D02*
X-1394167Y3600000D01*
X-1441786Y3695239D01*
X-1441786Y3838096D01*
X-1394167Y3933334D01*
X-1298929Y3980953D01*
X-775120Y3980953D01*
X-1298929Y3980953D02*
X-1394167Y4028572D01*
X-1441786Y4123810D01*
X-1441786Y4266667D01*
X-1394167Y4361905D01*
X-1298929Y4409524D01*
X-775120Y4409524D01*
X-775120Y5314286D02*
X-1298929Y5314286D01*
X-1394167Y5266667D01*
X-1441786Y5171429D01*
X-1441786Y4980953D01*
X-1394167Y4885715D01*
X-822739Y5314286D02*
X-775120Y5219048D01*
X-775120Y4980953D01*
X-822739Y4885715D01*
X-917977Y4838096D01*
X-1013215Y4838096D01*
X-1108453Y4885715D01*
X-1156072Y4980953D01*
X-1156072Y5219048D01*
X-1203691Y5314286D01*
X-775120Y5695239D02*
X-1441786Y6219048D01*
X-1441786Y5695239D02*
X-775120Y6219048D01*
X-1679881Y7314286D02*
X-1727500Y7361905D01*
X-1775120Y7457143D01*
X-1775120Y7695239D01*
X-1727500Y7790477D01*
X-1679881Y7838096D01*
X-1584643Y7885715D01*
X-1489405Y7885715D01*
X-1346548Y7838096D01*
X-775120Y7266667D01*
X-775120Y7885715D01*
X-1775120Y8504762D02*
X-1775120Y8600000D01*
X-1727500Y8695239D01*
X-1679881Y8742858D01*
X-1584643Y8790477D01*
X-1394167Y8838096D01*
X-1156072Y8838096D01*
X-965596Y8790477D01*
X-870358Y8742858D01*
X-822739Y8695239D01*
X-775120Y8600000D01*
X-775120Y8504762D01*
X-822739Y8409524D01*
X-870358Y8361905D01*
X-965596Y8314286D01*
X-1156072Y8266667D01*
X-1394167Y8266667D01*
X-1584643Y8314286D01*
X-1679881Y8361905D01*
X-1727500Y8409524D01*
X-1775120Y8504762D01*
X-1775120Y9123810D02*
X-775120Y9457143D01*
X-1775120Y9790477D01*
X-1346548Y11028572D02*
X-1394167Y10933334D01*
X-1441786Y10885715D01*
X-1537024Y10838096D01*
X-1584643Y10838096D01*
X-1679881Y10885715D01*
X-1727500Y10933334D01*
X-1775120Y11028572D01*
X-1775120Y11219048D01*
X-1727500Y11314286D01*
X-1679881Y11361905D01*
X-1584643Y11409524D01*
X-1537024Y11409524D01*
X-1441786Y11361905D01*
X-1394167Y11314286D01*
X-1346548Y11219048D01*
X-1346548Y11028572D01*
X-1298929Y10933334D01*
X-1251310Y10885715D01*
X-1156072Y10838096D01*
X-965596Y10838096D01*
X-870358Y10885715D01*
X-822739Y10933334D01*
X-775120Y11028572D01*
X-775120Y11219048D01*
X-822739Y11314286D01*
X-870358Y11361905D01*
X-965596Y11409524D01*
X-1156072Y11409524D01*
X-1251310Y11361905D01*
X-1298929Y11314286D01*
X-1346548Y11219048D01*
X-870358Y11838096D02*
X-822739Y11885715D01*
X-775120Y11838096D01*
X-822739Y11790477D01*
X-870358Y11838096D01*
X-775120Y11838096D01*
X-1775120Y12790477D02*
X-1775120Y12314286D01*
X-1298929Y12266667D01*
X-1346548Y12314286D01*
X-1394167Y12409524D01*
X-1394167Y12647620D01*
X-1346548Y12742858D01*
X-1298929Y12790477D01*
X-1203691Y12838096D01*
X-965596Y12838096D01*
X-870358Y12790477D01*
X-822739Y12742858D01*
X-775120Y12647620D01*
X-775120Y12409524D01*
X-822739Y12314286D01*
X-870358Y12266667D01*
X-1060834Y13219048D02*
X-1060834Y13695239D01*
X-775120Y13123810D02*
X-1775120Y13457143D01*
X-775120Y13790477D01*
X-4700120Y17902501D02*
X-4700120Y18569167D01*
X-3700120Y17902501D01*
X-3700120Y18569167D01*
X-3747739Y19331072D02*
X-3700120Y19235834D01*
X-3700120Y19045358D01*
X-3747739Y18950120D01*
X-3842977Y18902501D01*
X-4223929Y18902501D01*
X-4319167Y18950120D01*
X-4366786Y19045358D01*
X-4366786Y19235834D01*
X-4319167Y19331072D01*
X-4223929Y19378691D01*
X-4128691Y19378691D01*
X-4033453Y18902501D01*
X-3700120Y19807262D02*
X-4366786Y19807262D01*
X-4176310Y19807262D02*
X-4271548Y19854881D01*
X-4319167Y19902501D01*
X-4366786Y19997739D01*
X-4366786Y20092977D01*
X-3700120Y20569167D02*
X-3747739Y20473929D01*
X-3795358Y20426310D01*
X-3890596Y20378691D01*
X-4176310Y20378691D01*
X-4271548Y20426310D01*
X-4319167Y20473929D01*
X-4366786Y20569167D01*
X-4366786Y20712024D01*
X-4319167Y20807262D01*
X-4271548Y20854881D01*
X-4176310Y20902501D01*
X-3890596Y20902501D01*
X-3795358Y20854881D01*
X-3747739Y20807262D01*
X-3700120Y20712024D01*
X-3700120Y20569167D01*
X-3747739Y22045358D02*
X-3700120Y22188215D01*
X-3700120Y22426310D01*
X-3747739Y22521548D01*
X-3795358Y22569167D01*
X-3890596Y22616786D01*
X-3985834Y22616786D01*
X-4081072Y22569167D01*
X-4128691Y22521548D01*
X-4176310Y22426310D01*
X-4223929Y22235834D01*
X-4271548Y22140596D01*
X-4319167Y22092977D01*
X-4414405Y22045358D01*
X-4509643Y22045358D01*
X-4604881Y22092977D01*
X-4652500Y22140596D01*
X-4700120Y22235834D01*
X-4700120Y22473929D01*
X-4652500Y22616786D01*
X-3747739Y23426310D02*
X-3700120Y23331072D01*
X-3700120Y23140596D01*
X-3747739Y23045358D01*
X-3842977Y22997739D01*
X-4223929Y22997739D01*
X-4319167Y23045358D01*
X-4366786Y23140596D01*
X-4366786Y23331072D01*
X-4319167Y23426310D01*
X-4223929Y23473929D01*
X-4128691Y23473929D01*
X-4033453Y22997739D01*
X-4366786Y23902501D02*
X-3700120Y23902501D01*
X-4271548Y23902501D02*
X-4319167Y23950120D01*
X-4366786Y24045358D01*
X-4366786Y24188215D01*
X-4319167Y24283453D01*
X-4223929Y24331072D01*
X-3700120Y24331072D01*
X-3747739Y24759643D02*
X-3700120Y24854881D01*
X-3700120Y25045358D01*
X-3747739Y25140596D01*
X-3842977Y25188215D01*
X-3890596Y25188215D01*
X-3985834Y25140596D01*
X-4033453Y25045358D01*
X-4033453Y24902501D01*
X-4081072Y24807262D01*
X-4176310Y24759643D01*
X-4223929Y24759643D01*
X-4319167Y24807262D01*
X-4366786Y24902501D01*
X-4366786Y25045358D01*
X-4319167Y25140596D01*
X-3700120Y25759643D02*
X-3747739Y25664405D01*
X-3795358Y25616786D01*
X-3890596Y25569167D01*
X-4176310Y25569167D01*
X-4271548Y25616786D01*
X-4319167Y25664405D01*
X-4366786Y25759643D01*
X-4366786Y25902501D01*
X-4319167Y25997739D01*
X-4271548Y26045358D01*
X-4176310Y26092977D01*
X-3890596Y26092977D01*
X-3795358Y26045358D01*
X-3747739Y25997739D01*
X-3700120Y25902501D01*
X-3700120Y25759643D01*
X-3700120Y26521548D02*
X-4366786Y26521548D01*
X-4176310Y26521548D02*
X-4271548Y26569167D01*
X-4319167Y26616786D01*
X-4366786Y26712024D01*
X-4366786Y26807262D01*
X-3050120Y23759643D02*
X-2050120Y24092977D01*
X-3050120Y24426310D01*
X-2050120Y25283453D02*
X-2050120Y24712024D01*
X-2050120Y24997739D02*
X-3050120Y24997739D01*
X-2907262Y24902500D01*
X-2812024Y24807262D01*
X-2764405Y24712024D01*
X-2145358Y25712024D02*
X-2097739Y25759643D01*
X-2050120Y25712024D01*
X-2097739Y25664405D01*
X-2145358Y25712024D01*
X-2050120Y25712024D01*
X-3050120Y26378691D02*
X-3050120Y26473929D01*
X-3002500Y26569167D01*
X-2954881Y26616786D01*
X-2859643Y26664405D01*
X-2669167Y26712024D01*
X-2431072Y26712024D01*
X-2240596Y26664405D01*
X-2145358Y26616786D01*
X-2097739Y26569167D01*
X-2050120Y26473929D01*
X-2050120Y26378691D01*
X-2097739Y26283453D01*
X-2145358Y26235834D01*
X-2240596Y26188215D01*
X-2431072Y26140596D01*
X-2669167Y26140596D01*
X-2859643Y26188215D01*
X-2954881Y26235834D01*
X-3002500Y26283453D01*
X-3050120Y26378691D01*
D11*
X-38727500Y65000000D02*
G75*
G03*
X-42227500Y61500000I0J-3500000D01*
G01*
X-38727500Y0D02*
G75*
G02*
X-42227500Y3500000I0J3500000D01*
G01*
X2500Y0D02*
X-16997500Y0D01*
X2500Y65000000D02*
X2500Y0D01*
X-16997500Y65000000D02*
X2500Y65000000D01*
X-42227500Y3500000D02*
X-42227500Y61500000D01*
X-16997500Y0D02*
X-38727500Y0D01*
X-38727500Y65000000D02*
X-16997500Y65000000D01*
D12*
%TO.C,AIN4*%
X-30395000Y18992000D02*
X-30395000Y17742000D01*
X-29145000Y18992000D02*
X-30395000Y18992000D01*
X-25035000Y14582000D02*
X-25035000Y15082000D01*
X-24935000Y15082000D02*
X-24935000Y14582000D01*
X-25135000Y15082000D02*
X-24935000Y15082000D01*
X-25135000Y14582000D02*
X-25135000Y15082000D01*
X-27035000Y14582000D02*
X-27035000Y15082000D01*
X-26935000Y15082000D02*
X-26935000Y14582000D01*
X-27135000Y15082000D02*
X-26935000Y15082000D01*
X-27135000Y14582000D02*
X-27135000Y15082000D01*
X-21975000Y16082000D02*
X-22585000Y16082000D01*
X-21975000Y17382000D02*
X-22585000Y17382000D01*
X-30095000Y16082000D02*
X-29485000Y16082000D01*
X-30095000Y17382000D02*
X-29485000Y17382000D01*
X-24535000Y18082000D02*
X-24535000Y18692000D01*
X-22585000Y18082000D02*
X-24535000Y18082000D01*
X-22585000Y14582000D02*
X-22585000Y18082000D01*
X-29485000Y14582000D02*
X-22585000Y14582000D01*
X-29485000Y18082000D02*
X-29485000Y14582000D01*
X-27535000Y18082000D02*
X-29485000Y18082000D01*
X-27535000Y18692000D02*
X-27535000Y18082000D01*
X-28335000Y18792000D02*
X-28635000Y18792000D01*
X-28635000Y18892000D02*
X-28635000Y18692000D01*
X-28335000Y18892000D02*
X-28635000Y18892000D01*
X-28335000Y18692000D02*
X-28335000Y18892000D01*
X-21975000Y18692000D02*
X-30095000Y18692000D01*
X-21975000Y13972000D02*
X-21975000Y18692000D01*
X-30095000Y13972000D02*
X-21975000Y13972000D01*
X-30095000Y18692000D02*
X-30095000Y13972000D01*
%TO.C,R23*%
X-20687500Y3677064D02*
X-20687500Y2222936D01*
X-18867500Y3677064D02*
X-18867500Y2222936D01*
%TO.C,R22*%
X-23137500Y3677064D02*
X-23137500Y2222936D01*
X-21317500Y3677064D02*
X-21317500Y2222936D01*
D10*
%TO.C,TP1*%
X-25734714Y35465579D02*
X-23189129Y38011163D01*
X-23189129Y38011163D02*
X-22482023Y38011163D01*
X-22482023Y38011163D02*
X-21916337Y37445477D01*
X-21916337Y37445477D02*
X-21916337Y36738371D01*
X-21916337Y36738371D02*
X-24461921Y34192786D01*
X-24461921Y34192786D02*
X-25169028Y34192786D01*
X-25169028Y34192786D02*
X-25734714Y34758472D01*
X-25734714Y34758472D02*
X-25734714Y35465579D01*
D13*
%TO.C,REF\u002A\u002A*%
X-32777500Y22000000D02*
X-31052500Y22000000D01*
X-2127500Y57925000D02*
X-1852500Y58025000D01*
X-727500Y58450000D02*
X-727500Y58450000D01*
X-1427500Y58200000D02*
X-1152500Y58300000D01*
X-9327500Y54975000D02*
X-9602500Y54875000D01*
D14*
G36*
X-4027500Y57825000D02*
G01*
X-3627500Y57775000D01*
X-2902500Y57800000D01*
X-2527500Y57850000D01*
X-2577500Y57700000D01*
X-3902500Y57125000D01*
X-4702500Y58025000D01*
X-4577500Y58025000D01*
X-4027500Y57825000D01*
G37*
X-4027500Y57825000D02*
X-3627500Y57775000D01*
X-2902500Y57800000D01*
X-2527500Y57850000D01*
X-2577500Y57700000D01*
X-3902500Y57125000D01*
X-4702500Y58025000D01*
X-4577500Y58025000D01*
X-4027500Y57825000D01*
G36*
X-6752500Y56000000D02*
G01*
X-8102500Y55400000D01*
X-8302500Y55475000D01*
X-7902500Y55775000D01*
X-7427500Y56225000D01*
X-7127500Y56650000D01*
X-6827500Y57175000D01*
X-6752500Y57250000D01*
X-6752500Y56000000D01*
G37*
X-6752500Y56000000D02*
X-8102500Y55400000D01*
X-8302500Y55475000D01*
X-7902500Y55775000D01*
X-7427500Y56225000D01*
X-7127500Y56650000D01*
X-6827500Y57175000D01*
X-6752500Y57250000D01*
X-6752500Y56000000D01*
G36*
X-5902500Y56000000D02*
G01*
X-4527500Y56575000D01*
X-4427500Y56425000D01*
X-4952500Y55775000D01*
X-5702500Y55700000D01*
X-5902500Y56000000D01*
G37*
X-5902500Y56000000D02*
X-4527500Y56575000D01*
X-4427500Y56425000D01*
X-4952500Y55775000D01*
X-5702500Y55700000D01*
X-5902500Y56000000D01*
G36*
X-4752500Y57225000D02*
G01*
X-6152500Y56650000D01*
X-6227500Y56800000D01*
X-5702500Y57450000D01*
X-4952500Y57525000D01*
X-4752500Y57225000D01*
G37*
X-4752500Y57225000D02*
X-6152500Y56650000D01*
X-6227500Y56800000D01*
X-5702500Y57450000D01*
X-4952500Y57525000D01*
X-4752500Y57225000D01*
D13*
X-3827500Y56600000D02*
G75*
G03*
X-3827500Y56600000I-1500000J0D01*
G01*
X-8227500Y55425000D02*
X-2552500Y57750000D01*
X-8627500Y55250000D02*
X-8902500Y55150000D01*
X-10027500Y54725000D02*
X-10027500Y54725000D01*
D15*
X-4459971Y56411537D02*
G75*
G02*
X-5802500Y55850000I-867529J188463D01*
G01*
X-6211234Y56812753D02*
G75*
G02*
X-4852500Y57375000I883734J-212753D01*
G01*
D12*
%TO.C,JP4*%
X-25977500Y60050000D02*
X-25977500Y62000000D01*
X-20477500Y60050000D02*
X-25977500Y60050000D01*
X-20477500Y62000000D02*
X-20477500Y60050000D01*
X-25977500Y62000000D02*
X-20477500Y62000000D01*
%TO.C,C9*%
X-29338752Y37710000D02*
X-27916248Y37710000D01*
X-29338752Y35890000D02*
X-27916248Y35890000D01*
%TO.C,JP2*%
X-31402500Y60000000D02*
X-34202500Y60000000D01*
X-34202500Y60000000D02*
X-34202500Y62000000D01*
X-34202500Y62000000D02*
X-31402500Y62000000D01*
X-31402500Y62000000D02*
X-31402500Y60000000D01*
%TO.C,JP3*%
X-33277500Y47100000D02*
X-38777500Y47100000D01*
X-38777500Y47100000D02*
X-38777500Y49050000D01*
X-38777500Y49050000D02*
X-33277500Y49050000D01*
X-33277500Y49050000D02*
X-33277500Y47100000D01*
%TO.C,JP1*%
X-33177500Y33500000D02*
X-38677500Y33500000D01*
X-38677500Y33500000D02*
X-38677500Y35450000D01*
X-38677500Y35450000D02*
X-33177500Y35450000D01*
X-33177500Y35450000D02*
X-33177500Y33500000D01*
%TO.C,J2*%
X-18315000Y7085000D02*
X-13115000Y7085000D01*
X-18315000Y55405000D02*
X-18315000Y7085000D01*
X-13115000Y58005000D02*
X-13115000Y7085000D01*
X-18315000Y55405000D02*
X-15715000Y55405000D01*
X-15715000Y55405000D02*
X-15715000Y58005000D01*
X-15715000Y58005000D02*
X-13115000Y58005000D01*
X-18315000Y56675000D02*
X-18315000Y58005000D01*
X-18315000Y58005000D02*
X-16985000Y58005000D01*
%TO.C,C6*%
X-11937500Y61673752D02*
X-11937500Y60251248D01*
X-10117500Y61673752D02*
X-10117500Y60251248D01*
%TO.C,R16*%
X-34695000Y5009064D02*
X-34695000Y3554936D01*
X-32875000Y5009064D02*
X-32875000Y3554936D01*
%TO.C,R15*%
X-31937500Y5009064D02*
X-31937500Y3554936D01*
X-30117500Y5009064D02*
X-30117500Y3554936D01*
%TO.C,AIN3*%
X-40345000Y18992000D02*
X-40345000Y17742000D01*
X-39095000Y18992000D02*
X-40345000Y18992000D01*
X-34985000Y14582000D02*
X-34985000Y15082000D01*
X-34885000Y15082000D02*
X-34885000Y14582000D01*
X-35085000Y15082000D02*
X-34885000Y15082000D01*
X-35085000Y14582000D02*
X-35085000Y15082000D01*
X-36985000Y14582000D02*
X-36985000Y15082000D01*
X-36885000Y15082000D02*
X-36885000Y14582000D01*
X-37085000Y15082000D02*
X-36885000Y15082000D01*
X-37085000Y14582000D02*
X-37085000Y15082000D01*
X-31925000Y16082000D02*
X-32535000Y16082000D01*
X-31925000Y17382000D02*
X-32535000Y17382000D01*
X-40045000Y16082000D02*
X-39435000Y16082000D01*
X-40045000Y17382000D02*
X-39435000Y17382000D01*
X-34485000Y18082000D02*
X-34485000Y18692000D01*
X-32535000Y18082000D02*
X-34485000Y18082000D01*
X-32535000Y14582000D02*
X-32535000Y18082000D01*
X-39435000Y14582000D02*
X-32535000Y14582000D01*
X-39435000Y18082000D02*
X-39435000Y14582000D01*
X-37485000Y18082000D02*
X-39435000Y18082000D01*
X-37485000Y18692000D02*
X-37485000Y18082000D01*
X-38285000Y18792000D02*
X-38585000Y18792000D01*
X-38585000Y18892000D02*
X-38585000Y18692000D01*
X-38285000Y18892000D02*
X-38585000Y18892000D01*
X-38285000Y18692000D02*
X-38285000Y18892000D01*
X-31925000Y18692000D02*
X-40045000Y18692000D01*
X-31925000Y13972000D02*
X-31925000Y18692000D01*
X-40045000Y13972000D02*
X-31925000Y13972000D01*
X-40045000Y18692000D02*
X-40045000Y13972000D01*
%TO.C,AIN1*%
X-30395000Y12942000D02*
X-30395000Y11692000D01*
X-29145000Y12942000D02*
X-30395000Y12942000D01*
X-25035000Y8532000D02*
X-25035000Y9032000D01*
X-24935000Y9032000D02*
X-24935000Y8532000D01*
X-25135000Y9032000D02*
X-24935000Y9032000D01*
X-25135000Y8532000D02*
X-25135000Y9032000D01*
X-27035000Y8532000D02*
X-27035000Y9032000D01*
X-26935000Y9032000D02*
X-26935000Y8532000D01*
X-27135000Y9032000D02*
X-26935000Y9032000D01*
X-27135000Y8532000D02*
X-27135000Y9032000D01*
X-21975000Y10032000D02*
X-22585000Y10032000D01*
X-21975000Y11332000D02*
X-22585000Y11332000D01*
X-30095000Y10032000D02*
X-29485000Y10032000D01*
X-30095000Y11332000D02*
X-29485000Y11332000D01*
X-24535000Y12032000D02*
X-24535000Y12642000D01*
X-22585000Y12032000D02*
X-24535000Y12032000D01*
X-22585000Y8532000D02*
X-22585000Y12032000D01*
X-29485000Y8532000D02*
X-22585000Y8532000D01*
X-29485000Y12032000D02*
X-29485000Y8532000D01*
X-27535000Y12032000D02*
X-29485000Y12032000D01*
X-27535000Y12642000D02*
X-27535000Y12032000D01*
X-28335000Y12742000D02*
X-28635000Y12742000D01*
X-28635000Y12842000D02*
X-28635000Y12642000D01*
X-28335000Y12842000D02*
X-28635000Y12842000D01*
X-28335000Y12642000D02*
X-28335000Y12842000D01*
X-21975000Y12642000D02*
X-30095000Y12642000D01*
X-21975000Y7922000D02*
X-21975000Y12642000D01*
X-30095000Y7922000D02*
X-21975000Y7922000D01*
X-30095000Y12642000D02*
X-30095000Y7922000D01*
%TO.C,AIN2*%
X-40345000Y12942000D02*
X-40345000Y11692000D01*
X-39095000Y12942000D02*
X-40345000Y12942000D01*
X-34985000Y8532000D02*
X-34985000Y9032000D01*
X-34885000Y9032000D02*
X-34885000Y8532000D01*
X-35085000Y9032000D02*
X-34885000Y9032000D01*
X-35085000Y8532000D02*
X-35085000Y9032000D01*
X-36985000Y8532000D02*
X-36985000Y9032000D01*
X-36885000Y9032000D02*
X-36885000Y8532000D01*
X-37085000Y9032000D02*
X-36885000Y9032000D01*
X-37085000Y8532000D02*
X-37085000Y9032000D01*
X-31925000Y10032000D02*
X-32535000Y10032000D01*
X-31925000Y11332000D02*
X-32535000Y11332000D01*
X-40045000Y10032000D02*
X-39435000Y10032000D01*
X-40045000Y11332000D02*
X-39435000Y11332000D01*
X-34485000Y12032000D02*
X-34485000Y12642000D01*
X-32535000Y12032000D02*
X-34485000Y12032000D01*
X-32535000Y8532000D02*
X-32535000Y12032000D01*
X-39435000Y8532000D02*
X-32535000Y8532000D01*
X-39435000Y12032000D02*
X-39435000Y8532000D01*
X-37485000Y12032000D02*
X-39435000Y12032000D01*
X-37485000Y12642000D02*
X-37485000Y12032000D01*
X-38285000Y12742000D02*
X-38585000Y12742000D01*
X-38585000Y12842000D02*
X-38585000Y12642000D01*
X-38285000Y12842000D02*
X-38585000Y12842000D01*
X-38285000Y12642000D02*
X-38285000Y12842000D01*
X-31925000Y12642000D02*
X-40045000Y12642000D01*
X-31925000Y7922000D02*
X-31925000Y12642000D01*
X-40045000Y7922000D02*
X-31925000Y7922000D01*
X-40045000Y12642000D02*
X-40045000Y7922000D01*
%TO.C,UART1*%
X-27685000Y19937000D02*
X-22965000Y19937000D01*
X-22965000Y19937000D02*
X-22965000Y30057000D01*
X-22965000Y30057000D02*
X-27685000Y30057000D01*
X-27685000Y30057000D02*
X-27685000Y19937000D01*
X-27685000Y21697000D02*
X-27885000Y21697000D01*
X-27885000Y21697000D02*
X-27885000Y21397000D01*
X-27885000Y21397000D02*
X-27685000Y21397000D01*
X-27785000Y21697000D02*
X-27785000Y21397000D01*
X-27685000Y22497000D02*
X-27075000Y22497000D01*
X-27075000Y22497000D02*
X-27075000Y20547000D01*
X-27075000Y20547000D02*
X-23575000Y20547000D01*
X-23575000Y20547000D02*
X-23575000Y29447000D01*
X-23575000Y29447000D02*
X-27075000Y29447000D01*
X-27075000Y29447000D02*
X-27075000Y27497000D01*
X-27075000Y27497000D02*
X-27685000Y27497000D01*
X-26375000Y19937000D02*
X-26375000Y20547000D01*
X-25075000Y19937000D02*
X-25075000Y20547000D01*
X-26375000Y30057000D02*
X-26375000Y29447000D01*
X-25075000Y30057000D02*
X-25075000Y29447000D01*
X-23575000Y22897000D02*
X-24075000Y22897000D01*
X-24075000Y22897000D02*
X-24075000Y23097000D01*
X-24075000Y23097000D02*
X-23575000Y23097000D01*
X-23575000Y22997000D02*
X-24075000Y22997000D01*
X-23575000Y24897000D02*
X-24075000Y24897000D01*
X-24075000Y24897000D02*
X-24075000Y25097000D01*
X-24075000Y25097000D02*
X-23575000Y25097000D01*
X-23575000Y24997000D02*
X-24075000Y24997000D01*
X-23575000Y26897000D02*
X-24075000Y26897000D01*
X-24075000Y26897000D02*
X-24075000Y27097000D01*
X-24075000Y27097000D02*
X-23575000Y27097000D01*
X-23575000Y26997000D02*
X-24075000Y26997000D01*
X-27985000Y20887000D02*
X-27985000Y19637000D01*
X-27985000Y19637000D02*
X-26735000Y19637000D01*
%TO.C,I2C1*%
X-39115000Y19944000D02*
X-34395000Y19944000D01*
X-34395000Y19944000D02*
X-34395000Y30064000D01*
X-34395000Y30064000D02*
X-39115000Y30064000D01*
X-39115000Y30064000D02*
X-39115000Y19944000D01*
X-39115000Y21704000D02*
X-39315000Y21704000D01*
X-39315000Y21704000D02*
X-39315000Y21404000D01*
X-39315000Y21404000D02*
X-39115000Y21404000D01*
X-39215000Y21704000D02*
X-39215000Y21404000D01*
X-39115000Y22504000D02*
X-38505000Y22504000D01*
X-38505000Y22504000D02*
X-38505000Y20554000D01*
X-38505000Y20554000D02*
X-35005000Y20554000D01*
X-35005000Y20554000D02*
X-35005000Y29454000D01*
X-35005000Y29454000D02*
X-38505000Y29454000D01*
X-38505000Y29454000D02*
X-38505000Y27504000D01*
X-38505000Y27504000D02*
X-39115000Y27504000D01*
X-37805000Y19944000D02*
X-37805000Y20554000D01*
X-36505000Y19944000D02*
X-36505000Y20554000D01*
X-37805000Y30064000D02*
X-37805000Y29454000D01*
X-36505000Y30064000D02*
X-36505000Y29454000D01*
X-35005000Y22904000D02*
X-35505000Y22904000D01*
X-35505000Y22904000D02*
X-35505000Y23104000D01*
X-35505000Y23104000D02*
X-35005000Y23104000D01*
X-35005000Y23004000D02*
X-35505000Y23004000D01*
X-35005000Y24904000D02*
X-35505000Y24904000D01*
X-35505000Y24904000D02*
X-35505000Y25104000D01*
X-35505000Y25104000D02*
X-35005000Y25104000D01*
X-35005000Y25004000D02*
X-35505000Y25004000D01*
X-35005000Y26904000D02*
X-35505000Y26904000D01*
X-35505000Y26904000D02*
X-35505000Y27104000D01*
X-35505000Y27104000D02*
X-35005000Y27104000D01*
X-35005000Y27004000D02*
X-35505000Y27004000D01*
X-39415000Y20894000D02*
X-39415000Y19644000D01*
X-39415000Y19644000D02*
X-38165000Y19644000D01*
%TO.C,SPI2*%
X-39865000Y44657000D02*
X-39865000Y38687000D01*
X-39865000Y38687000D02*
X-22245000Y38687000D01*
X-22245000Y38687000D02*
X-22245000Y44657000D01*
X-22245000Y44657000D02*
X-39865000Y44657000D01*
X-36555000Y44647000D02*
X-36555000Y43897000D01*
X-36555000Y43897000D02*
X-25555000Y43897000D01*
X-25555000Y43897000D02*
X-25555000Y44647000D01*
X-25555000Y44647000D02*
X-36555000Y44647000D01*
X-39855000Y44647000D02*
X-39855000Y43897000D01*
X-39855000Y43897000D02*
X-38055000Y43897000D01*
X-38055000Y43897000D02*
X-38055000Y44647000D01*
X-38055000Y44647000D02*
X-39855000Y44647000D01*
X-24055000Y44647000D02*
X-24055000Y43897000D01*
X-24055000Y43897000D02*
X-22255000Y43897000D01*
X-22255000Y43897000D02*
X-22255000Y44647000D01*
X-22255000Y44647000D02*
X-24055000Y44647000D01*
X-39855000Y42397000D02*
X-39105000Y42397000D01*
X-39105000Y42397000D02*
X-39105000Y39447000D01*
X-39105000Y39447000D02*
X-31055000Y39447000D01*
X-22255000Y42397000D02*
X-23005000Y42397000D01*
X-23005000Y42397000D02*
X-23005000Y39447000D01*
X-23005000Y39447000D02*
X-31055000Y39447000D01*
X-38905000Y44947000D02*
X-40155000Y44947000D01*
X-40155000Y44947000D02*
X-40155000Y43697000D01*
%TO.C,SW2*%
X-2595000Y47642000D02*
X-2595000Y52142000D01*
X-6595000Y46392000D02*
X-5095000Y46392000D01*
X-9095000Y52142000D02*
X-9095000Y47642000D01*
X-5095000Y53392000D02*
X-6595000Y53392000D01*
%TO.C,SW1*%
X-2595000Y30497000D02*
X-2595000Y34997000D01*
X-6595000Y29247000D02*
X-5095000Y29247000D01*
X-9095000Y34997000D02*
X-9095000Y30497000D01*
X-5095000Y36247000D02*
X-6595000Y36247000D01*
%TO.C,D1*%
X-4195000Y59464000D02*
X-4195000Y59620000D01*
X-4195000Y61780000D02*
X-4195000Y61936000D01*
X-6796130Y61779837D02*
G75*
G02*
X-4714039Y61780000I1041130J-1079837D01*
G01*
X-6796130Y59620163D02*
G75*
G03*
X-4714039Y59620000I1041130J1079837D01*
G01*
X-7427335Y61778608D02*
G75*
G02*
X-4195000Y61935516I1672335J-1078608D01*
G01*
X-7427335Y59621392D02*
G75*
G03*
X-4195000Y59464484I1672335J1078608D01*
G01*
%TO.C,SPI1*%
X-39865000Y57357000D02*
X-39865000Y51387000D01*
X-39865000Y51387000D02*
X-22245000Y51387000D01*
X-22245000Y51387000D02*
X-22245000Y57357000D01*
X-22245000Y57357000D02*
X-39865000Y57357000D01*
X-36555000Y57347000D02*
X-36555000Y56597000D01*
X-36555000Y56597000D02*
X-25555000Y56597000D01*
X-25555000Y56597000D02*
X-25555000Y57347000D01*
X-25555000Y57347000D02*
X-36555000Y57347000D01*
X-39855000Y57347000D02*
X-39855000Y56597000D01*
X-39855000Y56597000D02*
X-38055000Y56597000D01*
X-38055000Y56597000D02*
X-38055000Y57347000D01*
X-38055000Y57347000D02*
X-39855000Y57347000D01*
X-24055000Y57347000D02*
X-24055000Y56597000D01*
X-24055000Y56597000D02*
X-22255000Y56597000D01*
X-22255000Y56597000D02*
X-22255000Y57347000D01*
X-22255000Y57347000D02*
X-24055000Y57347000D01*
X-39855000Y55097000D02*
X-39105000Y55097000D01*
X-39105000Y55097000D02*
X-39105000Y52147000D01*
X-39105000Y52147000D02*
X-31055000Y52147000D01*
X-22255000Y55097000D02*
X-23005000Y55097000D01*
X-23005000Y55097000D02*
X-23005000Y52147000D01*
X-23005000Y52147000D02*
X-31055000Y52147000D01*
X-38905000Y57647000D02*
X-40155000Y57647000D01*
X-40155000Y57647000D02*
X-40155000Y56397000D01*
%TO.C,I2S1*%
X-9425000Y44162000D02*
X-9425000Y38962000D01*
X-4285000Y44162000D02*
X-9425000Y44162000D01*
X-1685000Y38962000D02*
X-9425000Y38962000D01*
X-4285000Y44162000D02*
X-4285000Y41562000D01*
X-4285000Y41562000D02*
X-1685000Y41562000D01*
X-1685000Y41562000D02*
X-1685000Y38962000D01*
X-3015000Y44162000D02*
X-1685000Y44162000D01*
X-1685000Y44162000D02*
X-1685000Y42832000D01*
%TO.C,R4*%
X-10117500Y55377064D02*
X-10117500Y53922936D01*
X-11937500Y55377064D02*
X-11937500Y53922936D01*
%TO.C,J5*%
X-5145000Y8867000D02*
G75*
G03*
X-5145000Y8867000I-1680000J0D01*
G01*
X-5145000Y12367000D02*
G75*
G03*
X-5145000Y12367000I-1680000J0D01*
G01*
X-2725000Y3557000D02*
X-2725000Y14177000D01*
X-3825000Y3557000D02*
X-3825000Y14177000D01*
X-9985000Y3557000D02*
X-9985000Y14177000D01*
X-2265000Y3557000D02*
X-2265000Y14177000D01*
X-9985000Y3557000D02*
X-2265000Y3557000D01*
X-9985000Y14177000D02*
X-2265000Y14177000D01*
X-7894000Y10142000D02*
X-7766000Y10013000D01*
X-5644000Y7892000D02*
X-5551000Y7798000D01*
X-8100000Y9937000D02*
X-8006000Y9843000D01*
X-5884000Y7722000D02*
X-5756000Y7593000D01*
X-7894000Y13642000D02*
X-7766000Y13513000D01*
X-5644000Y11392000D02*
X-5551000Y11298000D01*
X-8100000Y13437000D02*
X-8006000Y13343000D01*
X-5884000Y11222000D02*
X-5756000Y11093000D01*
X-2665000Y3317000D02*
X-2025000Y3317000D01*
X-2025000Y3317000D02*
X-2025000Y3717000D01*
X-5144901Y5395674D02*
G75*
G02*
X-5385000Y4501000I-1680099J-28674D01*
G01*
X-5935106Y3941642D02*
G75*
G02*
X-7691000Y3927000I-889894J1425358D01*
G01*
X-8250358Y4477106D02*
G75*
G02*
X-8265000Y6233000I1425358J889894D01*
G01*
X-7715193Y6792505D02*
G75*
G02*
X-5934000Y6792000I890193J-1425505D01*
G01*
X-5400279Y6257264D02*
G75*
G02*
X-5145000Y5367000I-1424721J-890264D01*
G01*
%TD*%
%TO.C,TP1*%
D10*
X-23637653Y34264298D02*
X-22762188Y33725550D01*
X-23132577Y34365313D01*
X-22492813Y33994924D01*
X-23031562Y34870390D01*
X-22425470Y34803046D02*
X-22189768Y35038749D01*
X-21718363Y34769375D02*
X-22055081Y34432657D01*
X-22762188Y35139764D01*
X-22425470Y35476481D01*
%TO.C,REF\u002A\u002A*%
D13*
X-30225358Y22196429D02*
X-30225358Y23696429D01*
X-29582500Y22196429D02*
X-29582500Y22982143D01*
X-29653929Y23125000D01*
X-29796786Y23196429D01*
X-30011072Y23196429D01*
X-30153929Y23125000D01*
X-30225358Y23053572D01*
%TO.C,JP4*%
D10*
X-28198929Y60747620D02*
X-28532262Y61223810D01*
X-28770358Y60747620D02*
X-28770358Y61747620D01*
X-28389405Y61747620D01*
X-28294167Y61700000D01*
X-28246548Y61652381D01*
X-28198929Y61557143D01*
X-28198929Y61414286D01*
X-28246548Y61319048D01*
X-28294167Y61271429D01*
X-28389405Y61223810D01*
X-28770358Y61223810D01*
X-27389405Y60795239D02*
X-27484643Y60747620D01*
X-27675120Y60747620D01*
X-27770358Y60795239D01*
X-27817977Y60890477D01*
X-27817977Y61271429D01*
X-27770358Y61366667D01*
X-27675120Y61414286D01*
X-27484643Y61414286D01*
X-27389405Y61366667D01*
X-27341786Y61271429D01*
X-27341786Y61176191D01*
X-27817977Y61080953D01*
X-26484643Y61414286D02*
X-26484643Y60604762D01*
X-26532262Y60509524D01*
X-26579881Y60461905D01*
X-26675120Y60414286D01*
X-26817977Y60414286D01*
X-26913215Y60461905D01*
X-26484643Y60795239D02*
X-26579881Y60747620D01*
X-26770358Y60747620D01*
X-26865596Y60795239D01*
X-26913215Y60842858D01*
X-26960834Y60938096D01*
X-26960834Y61223810D01*
X-26913215Y61319048D01*
X-26865596Y61366667D01*
X-26770358Y61414286D01*
X-26579881Y61414286D01*
X-26484643Y61366667D01*
X-20027500Y60547620D02*
X-20027500Y61547620D01*
X-19646548Y61547620D01*
X-19551310Y61500000D01*
X-19503691Y61452381D01*
X-19456072Y61357143D01*
X-19456072Y61214286D01*
X-19503691Y61119048D01*
X-19551310Y61071429D01*
X-19646548Y61023810D01*
X-20027500Y61023810D01*
X-19027500Y60547620D02*
X-19027500Y61214286D01*
X-19027500Y61547620D02*
X-19075120Y61500000D01*
X-19027500Y61452381D01*
X-18979881Y61500000D01*
X-19027500Y61547620D01*
X-19027500Y61452381D01*
X-27494167Y63947620D02*
X-26875120Y63947620D01*
X-27208453Y63566667D01*
X-27065596Y63566667D01*
X-26970358Y63519048D01*
X-26922739Y63471429D01*
X-26875120Y63376191D01*
X-26875120Y63138096D01*
X-26922739Y63042858D01*
X-26970358Y62995239D01*
X-27065596Y62947620D01*
X-27351310Y62947620D01*
X-27446548Y62995239D01*
X-27494167Y63042858D01*
X-26446548Y63042858D02*
X-26398929Y62995239D01*
X-26446548Y62947620D01*
X-26494167Y62995239D01*
X-26446548Y63042858D01*
X-26446548Y62947620D01*
X-26065596Y63947620D02*
X-25446548Y63947620D01*
X-25779881Y63566667D01*
X-25637024Y63566667D01*
X-25541786Y63519048D01*
X-25494167Y63471429D01*
X-25446548Y63376191D01*
X-25446548Y63138096D01*
X-25494167Y63042858D01*
X-25541786Y62995239D01*
X-25637024Y62947620D01*
X-25922739Y62947620D01*
X-26017977Y62995239D01*
X-26065596Y63042858D01*
X-25160834Y63947620D02*
X-24827500Y62947620D01*
X-24494167Y63947620D01*
X-23446548Y62995239D02*
X-23303691Y62947620D01*
X-23065596Y62947620D01*
X-22970358Y62995239D01*
X-22922739Y63042858D01*
X-22875120Y63138096D01*
X-22875120Y63233334D01*
X-22922739Y63328572D01*
X-22970358Y63376191D01*
X-23065596Y63423810D01*
X-23256072Y63471429D01*
X-23351310Y63519048D01*
X-23398929Y63566667D01*
X-23446548Y63661905D01*
X-23446548Y63757143D01*
X-23398929Y63852381D01*
X-23351310Y63900000D01*
X-23256072Y63947620D01*
X-23017977Y63947620D01*
X-22875120Y63900000D01*
X-22065596Y62995239D02*
X-22160834Y62947620D01*
X-22351310Y62947620D01*
X-22446548Y62995239D01*
X-22494167Y63090477D01*
X-22494167Y63471429D01*
X-22446548Y63566667D01*
X-22351310Y63614286D01*
X-22160834Y63614286D01*
X-22065596Y63566667D01*
X-22017977Y63471429D01*
X-22017977Y63376191D01*
X-22494167Y63280953D01*
X-21446548Y62947620D02*
X-21541786Y62995239D01*
X-21589405Y63090477D01*
X-21589405Y63947620D01*
X-20684643Y62995239D02*
X-20779881Y62947620D01*
X-20970358Y62947620D01*
X-21065596Y62995239D01*
X-21113215Y63090477D01*
X-21113215Y63471429D01*
X-21065596Y63566667D01*
X-20970358Y63614286D01*
X-20779881Y63614286D01*
X-20684643Y63566667D01*
X-20637024Y63471429D01*
X-20637024Y63376191D01*
X-21113215Y63280953D01*
X-19779881Y62995239D02*
X-19875120Y62947620D01*
X-20065596Y62947620D01*
X-20160834Y62995239D01*
X-20208453Y63042858D01*
X-20256072Y63138096D01*
X-20256072Y63423810D01*
X-20208453Y63519048D01*
X-20160834Y63566667D01*
X-20065596Y63614286D01*
X-19875120Y63614286D01*
X-19779881Y63566667D01*
X-19494167Y63614286D02*
X-19113215Y63614286D01*
X-19351310Y63947620D02*
X-19351310Y63090477D01*
X-19303691Y62995239D01*
X-19208453Y62947620D01*
X-19113215Y62947620D01*
%TO.C,JP2*%
X-36002500Y63471429D02*
X-35669167Y63471429D01*
X-35526310Y62947620D02*
X-36002500Y62947620D01*
X-36002500Y63947620D01*
X-35526310Y63947620D01*
X-35192977Y62947620D02*
X-34669167Y63614286D01*
X-35192977Y63614286D02*
X-34669167Y62947620D01*
X-34431072Y63614286D02*
X-34050120Y63614286D01*
X-34288215Y63947620D02*
X-34288215Y63090477D01*
X-34240596Y62995239D01*
X-34145358Y62947620D01*
X-34050120Y62947620D01*
X-32954881Y62947620D02*
X-32954881Y63947620D01*
X-32573929Y63947620D01*
X-32478691Y63900000D01*
X-32431072Y63852381D01*
X-32383453Y63757143D01*
X-32383453Y63614286D01*
X-32431072Y63519048D01*
X-32478691Y63471429D01*
X-32573929Y63423810D01*
X-32954881Y63423810D01*
X-31812024Y62947620D02*
X-31907262Y62995239D01*
X-31954881Y63042858D01*
X-32002500Y63138096D01*
X-32002500Y63423810D01*
X-31954881Y63519048D01*
X-31907262Y63566667D01*
X-31812024Y63614286D01*
X-31669167Y63614286D01*
X-31573929Y63566667D01*
X-31526310Y63519048D01*
X-31478691Y63423810D01*
X-31478691Y63138096D01*
X-31526310Y63042858D01*
X-31573929Y62995239D01*
X-31669167Y62947620D01*
X-31812024Y62947620D01*
X-31145358Y63614286D02*
X-30954881Y62947620D01*
X-30764405Y63423810D01*
X-30573929Y62947620D01*
X-30383453Y63614286D01*
X-29621548Y62995239D02*
X-29716786Y62947620D01*
X-29907262Y62947620D01*
X-30002500Y62995239D01*
X-30050120Y63090477D01*
X-30050120Y63471429D01*
X-30002500Y63566667D01*
X-29907262Y63614286D01*
X-29716786Y63614286D01*
X-29621548Y63566667D01*
X-29573929Y63471429D01*
X-29573929Y63376191D01*
X-30050120Y63280953D01*
X-29145358Y62947620D02*
X-29145358Y63614286D01*
X-29145358Y63423810D02*
X-29097739Y63519048D01*
X-29050120Y63566667D01*
X-28954881Y63614286D01*
X-28859643Y63614286D01*
%TO.C,JP3*%
X-32317977Y48647620D02*
X-32794167Y48647620D01*
X-32841786Y48171429D01*
X-32794167Y48219048D01*
X-32698929Y48266667D01*
X-32460834Y48266667D01*
X-32365596Y48219048D01*
X-32317977Y48171429D01*
X-32270358Y48076191D01*
X-32270358Y47838096D01*
X-32317977Y47742858D01*
X-32365596Y47695239D01*
X-32460834Y47647620D01*
X-32698929Y47647620D01*
X-32794167Y47695239D01*
X-32841786Y47742858D01*
X-31984643Y48647620D02*
X-31651310Y47647620D01*
X-31317977Y48647620D01*
X-40789405Y48647620D02*
X-40170358Y48647620D01*
X-40503691Y48266667D01*
X-40360834Y48266667D01*
X-40265596Y48219048D01*
X-40217977Y48171429D01*
X-40170358Y48076191D01*
X-40170358Y47838096D01*
X-40217977Y47742858D01*
X-40265596Y47695239D01*
X-40360834Y47647620D01*
X-40646548Y47647620D01*
X-40741786Y47695239D01*
X-40789405Y47742858D01*
X-39884643Y48647620D02*
X-39551310Y47647620D01*
X-39217977Y48647620D01*
X-37051310Y49795239D02*
X-36908453Y49747620D01*
X-36670358Y49747620D01*
X-36575120Y49795239D01*
X-36527500Y49842858D01*
X-36479881Y49938096D01*
X-36479881Y50033334D01*
X-36527500Y50128572D01*
X-36575120Y50176191D01*
X-36670358Y50223810D01*
X-36860834Y50271429D01*
X-36956072Y50319048D01*
X-37003691Y50366667D01*
X-37051310Y50461905D01*
X-37051310Y50557143D01*
X-37003691Y50652381D01*
X-36956072Y50700000D01*
X-36860834Y50747620D01*
X-36622739Y50747620D01*
X-36479881Y50700000D01*
X-36051310Y49747620D02*
X-36051310Y50747620D01*
X-35670358Y50747620D01*
X-35575120Y50700000D01*
X-35527500Y50652381D01*
X-35479881Y50557143D01*
X-35479881Y50414286D01*
X-35527500Y50319048D01*
X-35575120Y50271429D01*
X-35670358Y50223810D01*
X-36051310Y50223810D01*
X-35051310Y49747620D02*
X-35051310Y50747620D01*
%TO.C,JP1*%
X-32217977Y35047620D02*
X-32694167Y35047620D01*
X-32741786Y34571429D01*
X-32694167Y34619048D01*
X-32598929Y34666667D01*
X-32360834Y34666667D01*
X-32265596Y34619048D01*
X-32217977Y34571429D01*
X-32170358Y34476191D01*
X-32170358Y34238096D01*
X-32217977Y34142858D01*
X-32265596Y34095239D01*
X-32360834Y34047620D01*
X-32598929Y34047620D01*
X-32694167Y34095239D01*
X-32741786Y34142858D01*
X-31884643Y35047620D02*
X-31551310Y34047620D01*
X-31217977Y35047620D01*
X-40689405Y35047620D02*
X-40070358Y35047620D01*
X-40403691Y34666667D01*
X-40260834Y34666667D01*
X-40165596Y34619048D01*
X-40117977Y34571429D01*
X-40070358Y34476191D01*
X-40070358Y34238096D01*
X-40117977Y34142858D01*
X-40165596Y34095239D01*
X-40260834Y34047620D01*
X-40546548Y34047620D01*
X-40641786Y34095239D01*
X-40689405Y34142858D01*
X-39784643Y35047620D02*
X-39451310Y34047620D01*
X-39117977Y35047620D01*
X-39460834Y36047620D02*
X-39460834Y37047620D01*
X-39032262Y36952381D02*
X-38984643Y37000000D01*
X-38889405Y37047620D01*
X-38651310Y37047620D01*
X-38556072Y37000000D01*
X-38508453Y36952381D01*
X-38460834Y36857143D01*
X-38460834Y36761905D01*
X-38508453Y36619048D01*
X-39079881Y36047620D01*
X-38460834Y36047620D01*
X-37460834Y36142858D02*
X-37508453Y36095239D01*
X-37651310Y36047620D01*
X-37746548Y36047620D01*
X-37889405Y36095239D01*
X-37984643Y36190477D01*
X-38032262Y36285715D01*
X-38079881Y36476191D01*
X-38079881Y36619048D01*
X-38032262Y36809524D01*
X-37984643Y36904762D01*
X-37889405Y37000000D01*
X-37746548Y37047620D01*
X-37651310Y37047620D01*
X-37508453Y37000000D01*
X-37460834Y36952381D01*
X-36317977Y37095239D02*
X-37175120Y35809524D01*
X-35984643Y37047620D02*
X-35984643Y36238096D01*
X-35937024Y36142858D01*
X-35889405Y36095239D01*
X-35794167Y36047620D01*
X-35603691Y36047620D01*
X-35508453Y36095239D01*
X-35460834Y36142858D01*
X-35413215Y36238096D01*
X-35413215Y37047620D01*
X-34984643Y36333334D02*
X-34508453Y36333334D01*
X-35079881Y36047620D02*
X-34746548Y37047620D01*
X-34413215Y36047620D01*
X-33508453Y36047620D02*
X-33841786Y36523810D01*
X-34079881Y36047620D02*
X-34079881Y37047620D01*
X-33698929Y37047620D01*
X-33603691Y37000000D01*
X-33556072Y36952381D01*
X-33508453Y36857143D01*
X-33508453Y36714286D01*
X-33556072Y36619048D01*
X-33603691Y36571429D01*
X-33698929Y36523810D01*
X-34079881Y36523810D01*
X-33222739Y37047620D02*
X-32651310Y37047620D01*
X-32937024Y36047620D02*
X-32937024Y37047620D01*
%TO.C,J5*%
X-10975120Y4014286D02*
X-11975120Y4014286D01*
X-11975120Y4395239D01*
X-11927500Y4490477D01*
X-11879881Y4538096D01*
X-11784643Y4585715D01*
X-11641786Y4585715D01*
X-11546548Y4538096D01*
X-11498929Y4490477D01*
X-11451310Y4395239D01*
X-11451310Y4014286D01*
X-10975120Y5157143D02*
X-11022739Y5061905D01*
X-11070358Y5014286D01*
X-11165596Y4966667D01*
X-11451310Y4966667D01*
X-11546548Y5014286D01*
X-11594167Y5061905D01*
X-11641786Y5157143D01*
X-11641786Y5300000D01*
X-11594167Y5395239D01*
X-11546548Y5442858D01*
X-11451310Y5490477D01*
X-11165596Y5490477D01*
X-11070358Y5442858D01*
X-11022739Y5395239D01*
X-10975120Y5300000D01*
X-10975120Y5157143D01*
X-11641786Y5823810D02*
X-10975120Y6014286D01*
X-11451310Y6204762D01*
X-10975120Y6395239D01*
X-11641786Y6585715D01*
X-11022739Y7347620D02*
X-10975120Y7252381D01*
X-10975120Y7061905D01*
X-11022739Y6966667D01*
X-11117977Y6919048D01*
X-11498929Y6919048D01*
X-11594167Y6966667D01*
X-11641786Y7061905D01*
X-11641786Y7252381D01*
X-11594167Y7347620D01*
X-11498929Y7395239D01*
X-11403691Y7395239D01*
X-11308453Y6919048D01*
X-10975120Y7823810D02*
X-11641786Y7823810D01*
X-11451310Y7823810D02*
X-11546548Y7871429D01*
X-11594167Y7919048D01*
X-11641786Y8014286D01*
X-11641786Y8109524D01*
X-10975120Y9204762D02*
X-11975120Y9204762D01*
X-11260834Y9538096D01*
X-11975120Y9871429D01*
X-10975120Y9871429D01*
X-10975120Y10490477D02*
X-11022739Y10395239D01*
X-11070358Y10347620D01*
X-11165596Y10300000D01*
X-11451310Y10300000D01*
X-11546548Y10347620D01*
X-11594167Y10395239D01*
X-11641786Y10490477D01*
X-11641786Y10633334D01*
X-11594167Y10728572D01*
X-11546548Y10776191D01*
X-11451310Y10823810D01*
X-11165596Y10823810D01*
X-11070358Y10776191D01*
X-11022739Y10728572D01*
X-10975120Y10633334D01*
X-10975120Y10490477D01*
X-11022739Y11204762D02*
X-10975120Y11300000D01*
X-10975120Y11490477D01*
X-11022739Y11585715D01*
X-11117977Y11633334D01*
X-11165596Y11633334D01*
X-11260834Y11585715D01*
X-11308453Y11490477D01*
X-11308453Y11347620D01*
X-11356072Y11252381D01*
X-11451310Y11204762D01*
X-11498929Y11204762D01*
X-11594167Y11252381D01*
X-11641786Y11347620D01*
X-11641786Y11490477D01*
X-11594167Y11585715D01*
X-11641786Y11919048D02*
X-11641786Y12300000D01*
X-10975120Y12061905D02*
X-11832262Y12061905D01*
X-11927500Y12109524D01*
X-11975120Y12204762D01*
X-11975120Y12300000D01*
X-11022739Y13014286D02*
X-10975120Y12919048D01*
X-10975120Y12728572D01*
X-11022739Y12633334D01*
X-11117977Y12585715D01*
X-11498929Y12585715D01*
X-11594167Y12633334D01*
X-11641786Y12728572D01*
X-11641786Y12919048D01*
X-11594167Y13014286D01*
X-11498929Y13061905D01*
X-11403691Y13061905D01*
X-11308453Y12585715D01*
X-11641786Y13347620D02*
X-11641786Y13728572D01*
X-11975120Y13490477D02*
X-11117977Y13490477D01*
X-11022739Y13538096D01*
X-10975120Y13633334D01*
X-10975120Y13728572D01*
X-3106072Y14619048D02*
X-3106072Y15380953D01*
X-2725120Y15000000D02*
X-3487024Y15000000D01*
X-3106072Y2069048D02*
X-3106072Y2830953D01*
%TD*%
M02*
