%TF.GenerationSoftware,KiCad,Pcbnew,(5.1.7)-1*%
%TF.CreationDate,2020-11-30T22:01:16+01:00*%
%TF.ProjectId,zerosensor,7a65726f-7365-46e7-936f-722e6b696361,rev?*%
%TF.SameCoordinates,PX761e28cPY7a7afb0*%
%TF.FileFunction,Soldermask,Top*%
%TF.FilePolarity,Negative*%
%FSLAX46Y46*%
G04 Gerber Fmt 4.6, Leading zero omitted, Abs format (unit mm)*
G04 Created by KiCad (PCBNEW (5.1.7)-1) date 2020-11-30 22:01:16*
%MOMM*%
%LPD*%
G01*
G04 APERTURE LIST*
%TA.AperFunction,Profile*%
%ADD10C,0.050000*%
%TD*%
%ADD11O,1.200000X1.750000*%
%ADD12C,1.400000*%
%ADD13C,0.100000*%
%ADD14R,1.500000X1.500000*%
%ADD15O,2.500000X1.700000*%
%ADD16R,2.500000X1.700000*%
%ADD17O,1.750000X1.200000*%
%ADD18O,1.700000X2.500000*%
%ADD19O,2.500000X2.000000*%
%ADD20C,5.000000*%
%ADD21O,2.500000X1.800000*%
%ADD22O,1.800000X2.500000*%
%ADD23R,1.700000X2.500000*%
%ADD24C,2.400000*%
G04 APERTURE END LIST*
D10*
X-38727500Y65000000D02*
G75*
G03*
X-42227500Y61500000I0J-3500000D01*
G01*
X-38727500Y0D02*
G75*
G02*
X-42227500Y3500000I0J3500000D01*
G01*
X2500Y0D02*
X-16997500Y0D01*
X2500Y65000000D02*
X2500Y0D01*
X-16997500Y65000000D02*
X2500Y65000000D01*
X-42227500Y3500000D02*
X-42227500Y61500000D01*
X-16997500Y0D02*
X-38727500Y0D01*
X-38727500Y65000000D02*
X-16997500Y65000000D01*
D11*
%TO.C,AIN4*%
X-24035000Y16882000D03*
X-26035000Y16882000D03*
G36*
G01*
X-28635000Y16256999D02*
X-28635000Y17507001D01*
G75*
G02*
X-28385001Y17757000I249999J0D01*
G01*
X-27684999Y17757000D01*
G75*
G02*
X-27435000Y17507001I0J-249999D01*
G01*
X-27435000Y16256999D01*
G75*
G02*
X-27684999Y16007000I-249999J0D01*
G01*
X-28385001Y16007000D01*
G75*
G02*
X-28635000Y16256999I0J249999D01*
G01*
G37*
%TD*%
%TO.C,R23*%
G36*
G01*
X-20402500Y2050000D02*
X-19152500Y2050000D01*
G75*
G02*
X-18902500Y1800000I0J-250000D01*
G01*
X-18902500Y1000000D01*
G75*
G02*
X-19152500Y750000I-250000J0D01*
G01*
X-20402500Y750000D01*
G75*
G02*
X-20652500Y1000000I0J250000D01*
G01*
X-20652500Y1800000D01*
G75*
G02*
X-20402500Y2050000I250000J0D01*
G01*
G37*
G36*
G01*
X-20402500Y5150000D02*
X-19152500Y5150000D01*
G75*
G02*
X-18902500Y4900000I0J-250000D01*
G01*
X-18902500Y4100000D01*
G75*
G02*
X-19152500Y3850000I-250000J0D01*
G01*
X-20402500Y3850000D01*
G75*
G02*
X-20652500Y4100000I0J250000D01*
G01*
X-20652500Y4900000D01*
G75*
G02*
X-20402500Y5150000I250000J0D01*
G01*
G37*
%TD*%
%TO.C,R22*%
G36*
G01*
X-22852500Y2050000D02*
X-21602500Y2050000D01*
G75*
G02*
X-21352500Y1800000I0J-250000D01*
G01*
X-21352500Y1000000D01*
G75*
G02*
X-21602500Y750000I-250000J0D01*
G01*
X-22852500Y750000D01*
G75*
G02*
X-23102500Y1000000I0J250000D01*
G01*
X-23102500Y1800000D01*
G75*
G02*
X-22852500Y2050000I250000J0D01*
G01*
G37*
G36*
G01*
X-22852500Y5150000D02*
X-21602500Y5150000D01*
G75*
G02*
X-21352500Y4900000I0J-250000D01*
G01*
X-21352500Y4100000D01*
G75*
G02*
X-21602500Y3850000I-250000J0D01*
G01*
X-22852500Y3850000D01*
G75*
G02*
X-23102500Y4100000I0J250000D01*
G01*
X-23102500Y4900000D01*
G75*
G02*
X-22852500Y5150000I250000J0D01*
G01*
G37*
%TD*%
D12*
%TO.C,TP1*%
X-22927500Y37000000D03*
X-24723551Y35203949D03*
%TD*%
D13*
%TO.C,JP4*%
G36*
X-22202500Y61000000D02*
G01*
X-21702500Y61750000D01*
X-20727500Y61750000D01*
X-20727500Y60250000D01*
X-21702500Y60250000D01*
X-22202500Y61000000D01*
G37*
G36*
X-24252500Y61000000D02*
G01*
X-24752500Y60250000D01*
X-25727500Y60250000D01*
X-25727500Y61750000D01*
X-24752500Y61750000D01*
X-24252500Y61000000D01*
G37*
D14*
X-24427500Y61000000D03*
X-22027500Y61000000D03*
%TD*%
%TO.C,C9*%
G36*
G01*
X-27727500Y36149999D02*
X-27727500Y37450001D01*
G75*
G02*
X-27477501Y37700000I249999J0D01*
G01*
X-26652499Y37700000D01*
G75*
G02*
X-26402500Y37450001I0J-249999D01*
G01*
X-26402500Y36149999D01*
G75*
G02*
X-26652499Y35900000I-249999J0D01*
G01*
X-27477501Y35900000D01*
G75*
G02*
X-27727500Y36149999I0J249999D01*
G01*
G37*
G36*
G01*
X-30852500Y36149999D02*
X-30852500Y37450001D01*
G75*
G02*
X-30602501Y37700000I249999J0D01*
G01*
X-29777499Y37700000D01*
G75*
G02*
X-29527500Y37450001I0J-249999D01*
G01*
X-29527500Y36149999D01*
G75*
G02*
X-29777499Y35900000I-249999J0D01*
G01*
X-30602501Y35900000D01*
G75*
G02*
X-30852500Y36149999I0J249999D01*
G01*
G37*
%TD*%
D13*
%TO.C,JP2*%
G36*
X-33052500Y61000000D02*
G01*
X-32552500Y61750000D01*
X-31577500Y61750000D01*
X-31577500Y60250000D01*
X-32552500Y60250000D01*
X-33052500Y61000000D01*
G37*
G36*
X-34027500Y61750000D02*
G01*
X-32877500Y61750000D01*
X-33377500Y61000000D01*
X-32877500Y60250000D01*
X-34027500Y60250000D01*
X-34027500Y61750000D01*
G37*
%TD*%
%TO.C,JP3*%
G36*
X-37052500Y48100000D02*
G01*
X-37552500Y47350000D01*
X-38527500Y47350000D01*
X-38527500Y48850000D01*
X-37552500Y48850000D01*
X-37052500Y48100000D01*
G37*
G36*
X-35002500Y48100000D02*
G01*
X-34502500Y48850000D01*
X-33527500Y48850000D01*
X-33527500Y47350000D01*
X-34502500Y47350000D01*
X-35002500Y48100000D01*
G37*
D14*
X-34827500Y48100000D03*
X-37227500Y48100000D03*
%TD*%
D13*
%TO.C,JP1*%
G36*
X-36952500Y34500000D02*
G01*
X-37452500Y33750000D01*
X-38427500Y33750000D01*
X-38427500Y35250000D01*
X-37452500Y35250000D01*
X-36952500Y34500000D01*
G37*
G36*
X-34902500Y34500000D02*
G01*
X-34402500Y35250000D01*
X-33427500Y35250000D01*
X-33427500Y33750000D01*
X-34402500Y33750000D01*
X-34902500Y34500000D01*
G37*
D14*
X-34727500Y34500000D03*
X-37127500Y34500000D03*
%TD*%
D15*
%TO.C,J2*%
X-14195000Y8415000D03*
G36*
G01*
X-18485000Y7990000D02*
X-18485000Y8840000D01*
G75*
G02*
X-18060000Y9265000I425000J0D01*
G01*
X-16410000Y9265000D01*
G75*
G02*
X-15985000Y8840000I0J-425000D01*
G01*
X-15985000Y7990000D01*
G75*
G02*
X-16410000Y7565000I-425000J0D01*
G01*
X-18060000Y7565000D01*
G75*
G02*
X-18485000Y7990000I0J425000D01*
G01*
G37*
X-14195000Y10955000D03*
X-17235000Y10955000D03*
X-14195000Y13495000D03*
X-17235000Y13495000D03*
G36*
G01*
X-15445000Y15610000D02*
X-15445000Y16460000D01*
G75*
G02*
X-15020000Y16885000I425000J0D01*
G01*
X-13370000Y16885000D01*
G75*
G02*
X-12945000Y16460000I0J-425000D01*
G01*
X-12945000Y15610000D01*
G75*
G02*
X-13370000Y15185000I-425000J0D01*
G01*
X-15020000Y15185000D01*
G75*
G02*
X-15445000Y15610000I0J425000D01*
G01*
G37*
X-17235000Y16035000D03*
X-14195000Y18575000D03*
X-17235000Y18575000D03*
G36*
G01*
X-15445000Y20690000D02*
X-15445000Y21540000D01*
G75*
G02*
X-15020000Y21965000I425000J0D01*
G01*
X-13370000Y21965000D01*
G75*
G02*
X-12945000Y21540000I0J-425000D01*
G01*
X-12945000Y20690000D01*
G75*
G02*
X-13370000Y20265000I-425000J0D01*
G01*
X-15020000Y20265000D01*
G75*
G02*
X-15445000Y20690000I0J425000D01*
G01*
G37*
X-17235000Y21115000D03*
X-14195000Y23655000D03*
X-17235000Y23655000D03*
X-14195000Y26195000D03*
G36*
G01*
X-18485000Y25770000D02*
X-18485000Y26620000D01*
G75*
G02*
X-18060000Y27045000I425000J0D01*
G01*
X-16410000Y27045000D01*
G75*
G02*
X-15985000Y26620000I0J-425000D01*
G01*
X-15985000Y25770000D01*
G75*
G02*
X-16410000Y25345000I-425000J0D01*
G01*
X-18060000Y25345000D01*
G75*
G02*
X-18485000Y25770000I0J425000D01*
G01*
G37*
X-14195000Y28735000D03*
X-17235000Y28735000D03*
X-14195000Y31275000D03*
X-17235000Y31275000D03*
G36*
G01*
X-15445000Y33390000D02*
X-15445000Y34240000D01*
G75*
G02*
X-15020000Y34665000I425000J0D01*
G01*
X-13370000Y34665000D01*
G75*
G02*
X-12945000Y34240000I0J-425000D01*
G01*
X-12945000Y33390000D01*
G75*
G02*
X-13370000Y32965000I-425000J0D01*
G01*
X-15020000Y32965000D01*
G75*
G02*
X-15445000Y33390000I0J425000D01*
G01*
G37*
X-17235000Y33815000D03*
X-14195000Y36355000D03*
D16*
X-17235000Y36355000D03*
D15*
X-14195000Y38895000D03*
X-17235000Y38895000D03*
G36*
G01*
X-15445000Y41010000D02*
X-15445000Y41860000D01*
G75*
G02*
X-15020000Y42285000I425000J0D01*
G01*
X-13370000Y42285000D01*
G75*
G02*
X-12945000Y41860000I0J-425000D01*
G01*
X-12945000Y41010000D01*
G75*
G02*
X-13370000Y40585000I-425000J0D01*
G01*
X-15020000Y40585000D01*
G75*
G02*
X-15445000Y41010000I0J425000D01*
G01*
G37*
X-17235000Y41435000D03*
X-14195000Y43975000D03*
X-17235000Y43975000D03*
X-14195000Y46515000D03*
G36*
G01*
X-18485000Y46090000D02*
X-18485000Y46940000D01*
G75*
G02*
X-18060000Y47365000I425000J0D01*
G01*
X-16410000Y47365000D01*
G75*
G02*
X-15985000Y46940000I0J-425000D01*
G01*
X-15985000Y46090000D01*
G75*
G02*
X-16410000Y45665000I-425000J0D01*
G01*
X-18060000Y45665000D01*
G75*
G02*
X-18485000Y46090000I0J425000D01*
G01*
G37*
X-14195000Y49055000D03*
X-17235000Y49055000D03*
G36*
G01*
X-15445000Y51170000D02*
X-15445000Y52020000D01*
G75*
G02*
X-15020000Y52445000I425000J0D01*
G01*
X-13370000Y52445000D01*
G75*
G02*
X-12945000Y52020000I0J-425000D01*
G01*
X-12945000Y51170000D01*
G75*
G02*
X-13370000Y50745000I-425000J0D01*
G01*
X-15020000Y50745000D01*
G75*
G02*
X-15445000Y51170000I0J425000D01*
G01*
G37*
X-17235000Y51595000D03*
X-14195000Y54135000D03*
X-17235000Y54135000D03*
X-14195000Y56675000D03*
D16*
X-17235000Y56675000D03*
%TD*%
%TO.C,C6*%
G36*
G01*
X-11677501Y60062500D02*
X-10377499Y60062500D01*
G75*
G02*
X-10127500Y59812501I0J-249999D01*
G01*
X-10127500Y58987499D01*
G75*
G02*
X-10377499Y58737500I-249999J0D01*
G01*
X-11677501Y58737500D01*
G75*
G02*
X-11927500Y58987499I0J249999D01*
G01*
X-11927500Y59812501D01*
G75*
G02*
X-11677501Y60062500I249999J0D01*
G01*
G37*
G36*
G01*
X-11677501Y63187500D02*
X-10377499Y63187500D01*
G75*
G02*
X-10127500Y62937501I0J-249999D01*
G01*
X-10127500Y62112499D01*
G75*
G02*
X-10377499Y61862500I-249999J0D01*
G01*
X-11677501Y61862500D01*
G75*
G02*
X-11927500Y62112499I0J249999D01*
G01*
X-11927500Y62937501D01*
G75*
G02*
X-11677501Y63187500I249999J0D01*
G01*
G37*
%TD*%
%TO.C,R16*%
G36*
G01*
X-34410000Y3382000D02*
X-33160000Y3382000D01*
G75*
G02*
X-32910000Y3132000I0J-250000D01*
G01*
X-32910000Y2332000D01*
G75*
G02*
X-33160000Y2082000I-250000J0D01*
G01*
X-34410000Y2082000D01*
G75*
G02*
X-34660000Y2332000I0J250000D01*
G01*
X-34660000Y3132000D01*
G75*
G02*
X-34410000Y3382000I250000J0D01*
G01*
G37*
G36*
G01*
X-34410000Y6482000D02*
X-33160000Y6482000D01*
G75*
G02*
X-32910000Y6232000I0J-250000D01*
G01*
X-32910000Y5432000D01*
G75*
G02*
X-33160000Y5182000I-250000J0D01*
G01*
X-34410000Y5182000D01*
G75*
G02*
X-34660000Y5432000I0J250000D01*
G01*
X-34660000Y6232000D01*
G75*
G02*
X-34410000Y6482000I250000J0D01*
G01*
G37*
%TD*%
%TO.C,R15*%
G36*
G01*
X-31652500Y3382000D02*
X-30402500Y3382000D01*
G75*
G02*
X-30152500Y3132000I0J-250000D01*
G01*
X-30152500Y2332000D01*
G75*
G02*
X-30402500Y2082000I-250000J0D01*
G01*
X-31652500Y2082000D01*
G75*
G02*
X-31902500Y2332000I0J250000D01*
G01*
X-31902500Y3132000D01*
G75*
G02*
X-31652500Y3382000I250000J0D01*
G01*
G37*
G36*
G01*
X-31652500Y6482000D02*
X-30402500Y6482000D01*
G75*
G02*
X-30152500Y6232000I0J-250000D01*
G01*
X-30152500Y5432000D01*
G75*
G02*
X-30402500Y5182000I-250000J0D01*
G01*
X-31652500Y5182000D01*
G75*
G02*
X-31902500Y5432000I0J250000D01*
G01*
X-31902500Y6232000D01*
G75*
G02*
X-31652500Y6482000I250000J0D01*
G01*
G37*
%TD*%
D11*
%TO.C,AIN3*%
X-33985000Y16882000D03*
X-35985000Y16882000D03*
G36*
G01*
X-38585000Y16256999D02*
X-38585000Y17507001D01*
G75*
G02*
X-38335001Y17757000I249999J0D01*
G01*
X-37634999Y17757000D01*
G75*
G02*
X-37385000Y17507001I0J-249999D01*
G01*
X-37385000Y16256999D01*
G75*
G02*
X-37634999Y16007000I-249999J0D01*
G01*
X-38335001Y16007000D01*
G75*
G02*
X-38585000Y16256999I0J249999D01*
G01*
G37*
%TD*%
%TO.C,AIN1*%
X-24035000Y10832000D03*
X-26035000Y10832000D03*
G36*
G01*
X-28635000Y10206999D02*
X-28635000Y11457001D01*
G75*
G02*
X-28385001Y11707000I249999J0D01*
G01*
X-27684999Y11707000D01*
G75*
G02*
X-27435000Y11457001I0J-249999D01*
G01*
X-27435000Y10206999D01*
G75*
G02*
X-27684999Y9957000I-249999J0D01*
G01*
X-28385001Y9957000D01*
G75*
G02*
X-28635000Y10206999I0J249999D01*
G01*
G37*
%TD*%
%TO.C,AIN2*%
X-33985000Y10832000D03*
X-35985000Y10832000D03*
G36*
G01*
X-38585000Y10206999D02*
X-38585000Y11457001D01*
G75*
G02*
X-38335001Y11707000I249999J0D01*
G01*
X-37634999Y11707000D01*
G75*
G02*
X-37385000Y11457001I0J-249999D01*
G01*
X-37385000Y10206999D01*
G75*
G02*
X-37634999Y9957000I-249999J0D01*
G01*
X-38335001Y9957000D01*
G75*
G02*
X-38585000Y10206999I0J249999D01*
G01*
G37*
%TD*%
D17*
%TO.C,UART1*%
X-25875000Y27997000D03*
X-25875000Y25997000D03*
X-25875000Y23997000D03*
G36*
G01*
X-25249999Y21397000D02*
X-26500001Y21397000D01*
G75*
G02*
X-26750000Y21646999I0J249999D01*
G01*
X-26750000Y22347001D01*
G75*
G02*
X-26500001Y22597000I249999J0D01*
G01*
X-25249999Y22597000D01*
G75*
G02*
X-25000000Y22347001I0J-249999D01*
G01*
X-25000000Y21646999D01*
G75*
G02*
X-25249999Y21397000I-249999J0D01*
G01*
G37*
%TD*%
%TO.C,I2C1*%
X-37305000Y28004000D03*
X-37305000Y26004000D03*
X-37305000Y24004000D03*
G36*
G01*
X-36679999Y21404000D02*
X-37930001Y21404000D01*
G75*
G02*
X-38180000Y21653999I0J249999D01*
G01*
X-38180000Y22354001D01*
G75*
G02*
X-37930001Y22604000I249999J0D01*
G01*
X-36679999Y22604000D01*
G75*
G02*
X-36430000Y22354001I0J-249999D01*
G01*
X-36430000Y21653999D01*
G75*
G02*
X-36679999Y21404000I-249999J0D01*
G01*
G37*
%TD*%
D18*
%TO.C,SPI2*%
X-24805000Y42197000D03*
X-27305000Y42197000D03*
X-29805000Y42197000D03*
X-32305000Y42197000D03*
X-34805000Y42197000D03*
G36*
G01*
X-38155000Y41196900D02*
X-38155000Y43197100D01*
G75*
G02*
X-37905100Y43447000I249900J0D01*
G01*
X-36704900Y43447000D01*
G75*
G02*
X-36455000Y43197100I0J-249900D01*
G01*
X-36455000Y41196900D01*
G75*
G02*
X-36704900Y40947000I-249900J0D01*
G01*
X-37905100Y40947000D01*
G75*
G02*
X-38155000Y41196900I0J249900D01*
G01*
G37*
%TD*%
%TO.C,SW2*%
G36*
G01*
X-6845000Y53642000D02*
X-6845000Y52642000D01*
G75*
G02*
X-7345000Y52142000I-500000J0D01*
G01*
X-8845000Y52142000D01*
G75*
G02*
X-9345000Y52642000I0J500000D01*
G01*
X-9345000Y53642000D01*
G75*
G02*
X-8845000Y54142000I500000J0D01*
G01*
X-7345000Y54142000D01*
G75*
G02*
X-6845000Y53642000I0J-500000D01*
G01*
G37*
D19*
X-3595000Y53142000D03*
G36*
G01*
X-6845000Y47142000D02*
X-6845000Y46142000D01*
G75*
G02*
X-7345000Y45642000I-500000J0D01*
G01*
X-8845000Y45642000D01*
G75*
G02*
X-9345000Y46142000I0J500000D01*
G01*
X-9345000Y47142000D01*
G75*
G02*
X-8845000Y47642000I500000J0D01*
G01*
X-7345000Y47642000D01*
G75*
G02*
X-6845000Y47142000I0J-500000D01*
G01*
G37*
X-3595000Y46642000D03*
%TD*%
%TO.C,SW1*%
G36*
G01*
X-6845000Y36497000D02*
X-6845000Y35497000D01*
G75*
G02*
X-7345000Y34997000I-500000J0D01*
G01*
X-8845000Y34997000D01*
G75*
G02*
X-9345000Y35497000I0J500000D01*
G01*
X-9345000Y36497000D01*
G75*
G02*
X-8845000Y36997000I500000J0D01*
G01*
X-7345000Y36997000D01*
G75*
G02*
X-6845000Y36497000I0J-500000D01*
G01*
G37*
X-3595000Y35997000D03*
G36*
G01*
X-6845000Y29997000D02*
X-6845000Y28997000D01*
G75*
G02*
X-7345000Y28497000I-500000J0D01*
G01*
X-8845000Y28497000D01*
G75*
G02*
X-9345000Y28997000I0J500000D01*
G01*
X-9345000Y29997000D01*
G75*
G02*
X-8845000Y30497000I500000J0D01*
G01*
X-7345000Y30497000D01*
G75*
G02*
X-6845000Y29997000I0J-500000D01*
G01*
G37*
X-3595000Y29497000D03*
%TD*%
D20*
%TO.C,REF\u002A\u002A*%
X-38727500Y3462000D03*
%TD*%
%TO.C,REF\u002A\u002A*%
X-38727500Y61501000D03*
%TD*%
D21*
%TO.C,D1*%
X-7025000Y60700000D03*
D22*
X-4485000Y60700000D03*
%TD*%
D18*
%TO.C,SPI1*%
X-24805000Y54897000D03*
X-27305000Y54897000D03*
X-29805000Y54897000D03*
X-32305000Y54897000D03*
X-34805000Y54897000D03*
G36*
G01*
X-38155000Y53896900D02*
X-38155000Y55897100D01*
G75*
G02*
X-37905100Y56147000I249900J0D01*
G01*
X-36704900Y56147000D01*
G75*
G02*
X-36455000Y55897100I0J-249900D01*
G01*
X-36455000Y53896900D01*
G75*
G02*
X-36704900Y53647000I-249900J0D01*
G01*
X-37905100Y53647000D01*
G75*
G02*
X-38155000Y53896900I0J249900D01*
G01*
G37*
%TD*%
D23*
%TO.C,I2S1*%
X-8095000Y40042000D03*
X-8095000Y43082000D03*
G36*
G01*
X-5980000Y41292000D02*
X-5130000Y41292000D01*
G75*
G02*
X-4705000Y40867000I0J-425000D01*
G01*
X-4705000Y39217000D01*
G75*
G02*
X-5130000Y38792000I-425000J0D01*
G01*
X-5980000Y38792000D01*
G75*
G02*
X-6405000Y39217000I0J425000D01*
G01*
X-6405000Y40867000D01*
G75*
G02*
X-5980000Y41292000I425000J0D01*
G01*
G37*
D18*
X-5555000Y43082000D03*
X-3015000Y40042000D03*
X-3015000Y43082000D03*
%TD*%
%TO.C,R4*%
G36*
G01*
X-11652501Y53750000D02*
X-10402499Y53750000D01*
G75*
G02*
X-10152500Y53500001I0J-249999D01*
G01*
X-10152500Y52699999D01*
G75*
G02*
X-10402499Y52450000I-249999J0D01*
G01*
X-11652501Y52450000D01*
G75*
G02*
X-11902500Y52699999I0J249999D01*
G01*
X-11902500Y53500001D01*
G75*
G02*
X-11652501Y53750000I249999J0D01*
G01*
G37*
G36*
G01*
X-11652501Y56850000D02*
X-10402499Y56850000D01*
G75*
G02*
X-10152500Y56600001I0J-249999D01*
G01*
X-10152500Y55799999D01*
G75*
G02*
X-10402499Y55550000I-249999J0D01*
G01*
X-11652501Y55550000D01*
G75*
G02*
X-11902500Y55799999I0J249999D01*
G01*
X-11902500Y56600001D01*
G75*
G02*
X-11652501Y56850000I249999J0D01*
G01*
G37*
%TD*%
D20*
%TO.C,REF\u002A\u002A*%
X-15727500Y3462000D03*
%TD*%
%TO.C,REF\u002A\u002A*%
X-15727500Y61501000D03*
%TD*%
D24*
%TO.C,J5*%
X-6825000Y12367000D03*
X-6825000Y8867000D03*
G36*
G01*
X-6225000Y4167000D02*
X-7425000Y4167000D01*
G75*
G02*
X-8025000Y4767000I0J600000D01*
G01*
X-8025000Y5967000D01*
G75*
G02*
X-7425000Y6567000I600000J0D01*
G01*
X-6225000Y6567000D01*
G75*
G02*
X-5625000Y5967000I0J-600000D01*
G01*
X-5625000Y4767000D01*
G75*
G02*
X-6225000Y4167000I-600000J0D01*
G01*
G37*
%TD*%
M02*
