%TF.GenerationSoftware,KiCad,Pcbnew,(5.1.7)-1*%
%TF.CreationDate,2020-11-30T22:01:16+01:00*%
%TF.ProjectId,zerosensor,7a65726f-7365-46e7-936f-722e6b696361,rev?*%
%TF.SameCoordinates,PX761e28cPY7a7afb0*%
%TF.FileFunction,Paste,Bot*%
%TF.FilePolarity,Positive*%
%FSLAX46Y46*%
G04 Gerber Fmt 4.6, Leading zero omitted, Abs format (unit mm)*
G04 Created by KiCad (PCBNEW (5.1.7)-1) date 2020-11-30 22:01:16*
%MOMM*%
%LPD*%
G01*
G04 APERTURE LIST*
%TA.AperFunction,Profile*%
%ADD10C,0.050000*%
%TD*%
%ADD11R,2.000000X1.500000*%
%ADD12R,2.000000X3.800000*%
%ADD13R,1.200000X0.900000*%
%ADD14R,1.700000X1.300000*%
%ADD15R,0.900000X0.800000*%
%ADD16R,2.750000X3.050000*%
%ADD17R,1.200000X2.200000*%
G04 APERTURE END LIST*
D10*
X-38727500Y65000000D02*
G75*
G03*
X-42227500Y61500000I0J-3500000D01*
G01*
X-38727500Y0D02*
G75*
G02*
X-42227500Y3500000I0J3500000D01*
G01*
X2500Y0D02*
X-16997500Y0D01*
X2500Y65000000D02*
X2500Y0D01*
X-16997500Y65000000D02*
X2500Y65000000D01*
X-42227500Y3500000D02*
X-42227500Y61500000D01*
X-16997500Y0D02*
X-38727500Y0D01*
X-38727500Y65000000D02*
X-16997500Y65000000D01*
%TO.C,U6*%
G36*
G01*
X-19737500Y24375000D02*
X-20037500Y24375000D01*
G75*
G02*
X-20187500Y24525000I0J150000D01*
G01*
X-20187500Y26175000D01*
G75*
G02*
X-20037500Y26325000I150000J0D01*
G01*
X-19737500Y26325000D01*
G75*
G02*
X-19587500Y26175000I0J-150000D01*
G01*
X-19587500Y24525000D01*
G75*
G02*
X-19737500Y24375000I-150000J0D01*
G01*
G37*
G36*
G01*
X-21007500Y24375000D02*
X-21307500Y24375000D01*
G75*
G02*
X-21457500Y24525000I0J150000D01*
G01*
X-21457500Y26175000D01*
G75*
G02*
X-21307500Y26325000I150000J0D01*
G01*
X-21007500Y26325000D01*
G75*
G02*
X-20857500Y26175000I0J-150000D01*
G01*
X-20857500Y24525000D01*
G75*
G02*
X-21007500Y24375000I-150000J0D01*
G01*
G37*
G36*
G01*
X-22277500Y24375000D02*
X-22577500Y24375000D01*
G75*
G02*
X-22727500Y24525000I0J150000D01*
G01*
X-22727500Y26175000D01*
G75*
G02*
X-22577500Y26325000I150000J0D01*
G01*
X-22277500Y26325000D01*
G75*
G02*
X-22127500Y26175000I0J-150000D01*
G01*
X-22127500Y24525000D01*
G75*
G02*
X-22277500Y24375000I-150000J0D01*
G01*
G37*
G36*
G01*
X-23547500Y24375000D02*
X-23847500Y24375000D01*
G75*
G02*
X-23997500Y24525000I0J150000D01*
G01*
X-23997500Y26175000D01*
G75*
G02*
X-23847500Y26325000I150000J0D01*
G01*
X-23547500Y26325000D01*
G75*
G02*
X-23397500Y26175000I0J-150000D01*
G01*
X-23397500Y24525000D01*
G75*
G02*
X-23547500Y24375000I-150000J0D01*
G01*
G37*
G36*
G01*
X-23547500Y19425000D02*
X-23847500Y19425000D01*
G75*
G02*
X-23997500Y19575000I0J150000D01*
G01*
X-23997500Y21225000D01*
G75*
G02*
X-23847500Y21375000I150000J0D01*
G01*
X-23547500Y21375000D01*
G75*
G02*
X-23397500Y21225000I0J-150000D01*
G01*
X-23397500Y19575000D01*
G75*
G02*
X-23547500Y19425000I-150000J0D01*
G01*
G37*
G36*
G01*
X-22277500Y19425000D02*
X-22577500Y19425000D01*
G75*
G02*
X-22727500Y19575000I0J150000D01*
G01*
X-22727500Y21225000D01*
G75*
G02*
X-22577500Y21375000I150000J0D01*
G01*
X-22277500Y21375000D01*
G75*
G02*
X-22127500Y21225000I0J-150000D01*
G01*
X-22127500Y19575000D01*
G75*
G02*
X-22277500Y19425000I-150000J0D01*
G01*
G37*
G36*
G01*
X-21007500Y19425000D02*
X-21307500Y19425000D01*
G75*
G02*
X-21457500Y19575000I0J150000D01*
G01*
X-21457500Y21225000D01*
G75*
G02*
X-21307500Y21375000I150000J0D01*
G01*
X-21007500Y21375000D01*
G75*
G02*
X-20857500Y21225000I0J-150000D01*
G01*
X-20857500Y19575000D01*
G75*
G02*
X-21007500Y19425000I-150000J0D01*
G01*
G37*
G36*
G01*
X-19737500Y19425000D02*
X-20037500Y19425000D01*
G75*
G02*
X-20187500Y19575000I0J150000D01*
G01*
X-20187500Y21225000D01*
G75*
G02*
X-20037500Y21375000I150000J0D01*
G01*
X-19737500Y21375000D01*
G75*
G02*
X-19587500Y21225000I0J-150000D01*
G01*
X-19587500Y19575000D01*
G75*
G02*
X-19737500Y19425000I-150000J0D01*
G01*
G37*
%TD*%
%TO.C,R21*%
G36*
G01*
X-24677500Y33125000D02*
X-24677500Y31875000D01*
G75*
G02*
X-24927500Y31625000I-250000J0D01*
G01*
X-25727500Y31625000D01*
G75*
G02*
X-25977500Y31875000I0J250000D01*
G01*
X-25977500Y33125000D01*
G75*
G02*
X-25727500Y33375000I250000J0D01*
G01*
X-24927500Y33375000D01*
G75*
G02*
X-24677500Y33125000I0J-250000D01*
G01*
G37*
G36*
G01*
X-21577500Y33125000D02*
X-21577500Y31875000D01*
G75*
G02*
X-21827500Y31625000I-250000J0D01*
G01*
X-22627500Y31625000D01*
G75*
G02*
X-22877500Y31875000I0J250000D01*
G01*
X-22877500Y33125000D01*
G75*
G02*
X-22627500Y33375000I250000J0D01*
G01*
X-21827500Y33375000D01*
G75*
G02*
X-21577500Y33125000I0J-250000D01*
G01*
G37*
%TD*%
%TO.C,R20*%
G36*
G01*
X-23377500Y30725000D02*
X-23377500Y29475000D01*
G75*
G02*
X-23627500Y29225000I-250000J0D01*
G01*
X-24427500Y29225000D01*
G75*
G02*
X-24677500Y29475000I0J250000D01*
G01*
X-24677500Y30725000D01*
G75*
G02*
X-24427500Y30975000I250000J0D01*
G01*
X-23627500Y30975000D01*
G75*
G02*
X-23377500Y30725000I0J-250000D01*
G01*
G37*
G36*
G01*
X-20277500Y30725000D02*
X-20277500Y29475000D01*
G75*
G02*
X-20527500Y29225000I-250000J0D01*
G01*
X-21327500Y29225000D01*
G75*
G02*
X-21577500Y29475000I0J250000D01*
G01*
X-21577500Y30725000D01*
G75*
G02*
X-21327500Y30975000I250000J0D01*
G01*
X-20527500Y30975000D01*
G75*
G02*
X-20277500Y30725000I0J-250000D01*
G01*
G37*
%TD*%
%TO.C,R19*%
G36*
G01*
X-21077500Y27075000D02*
X-21077500Y28325000D01*
G75*
G02*
X-20827500Y28575000I250000J0D01*
G01*
X-20027500Y28575000D01*
G75*
G02*
X-19777500Y28325000I0J-250000D01*
G01*
X-19777500Y27075000D01*
G75*
G02*
X-20027500Y26825000I-250000J0D01*
G01*
X-20827500Y26825000D01*
G75*
G02*
X-21077500Y27075000I0J250000D01*
G01*
G37*
G36*
G01*
X-24177500Y27075000D02*
X-24177500Y28325000D01*
G75*
G02*
X-23927500Y28575000I250000J0D01*
G01*
X-23127500Y28575000D01*
G75*
G02*
X-22877500Y28325000I0J-250000D01*
G01*
X-22877500Y27075000D01*
G75*
G02*
X-23127500Y26825000I-250000J0D01*
G01*
X-23927500Y26825000D01*
G75*
G02*
X-24177500Y27075000I0J250000D01*
G01*
G37*
%TD*%
D11*
%TO.C,U5*%
X-39677500Y34700000D03*
X-39677500Y39300000D03*
X-39677500Y37000000D03*
D12*
X-33377500Y37000000D03*
%TD*%
%TO.C,C8*%
G36*
G01*
X-39077499Y44287500D02*
X-40377501Y44287500D01*
G75*
G02*
X-40627500Y44537499I0J249999D01*
G01*
X-40627500Y45362501D01*
G75*
G02*
X-40377501Y45612500I249999J0D01*
G01*
X-39077499Y45612500D01*
G75*
G02*
X-38827500Y45362501I0J-249999D01*
G01*
X-38827500Y44537499D01*
G75*
G02*
X-39077499Y44287500I-249999J0D01*
G01*
G37*
G36*
G01*
X-39077499Y41162500D02*
X-40377501Y41162500D01*
G75*
G02*
X-40627500Y41412499I0J249999D01*
G01*
X-40627500Y42237501D01*
G75*
G02*
X-40377501Y42487500I249999J0D01*
G01*
X-39077499Y42487500D01*
G75*
G02*
X-38827500Y42237501I0J-249999D01*
G01*
X-38827500Y41412499D01*
G75*
G02*
X-39077499Y41162500I-249999J0D01*
G01*
G37*
%TD*%
D13*
%TO.C,D6*%
X-2785000Y18932000D03*
X-2785000Y15632000D03*
%TD*%
D14*
%TO.C,D5*%
X-21435000Y17732000D03*
X-21435000Y14232000D03*
%TD*%
%TO.C,D4*%
X-40435000Y17782000D03*
X-40435000Y14282000D03*
%TD*%
%TO.C,D3*%
X-40435000Y12182000D03*
X-40435000Y8682000D03*
%TD*%
%TO.C,D2*%
X-21435000Y12182000D03*
X-21435000Y8682000D03*
%TD*%
D11*
%TO.C,U4*%
X-29935000Y58732000D03*
X-29935000Y63332000D03*
X-29935000Y61032000D03*
D12*
X-23635000Y61032000D03*
%TD*%
%TO.C,C7*%
G36*
G01*
X-33585001Y60282000D02*
X-32284999Y60282000D01*
G75*
G02*
X-32035000Y60032001I0J-249999D01*
G01*
X-32035000Y59206999D01*
G75*
G02*
X-32284999Y58957000I-249999J0D01*
G01*
X-33585001Y58957000D01*
G75*
G02*
X-33835000Y59206999I0J249999D01*
G01*
X-33835000Y60032001D01*
G75*
G02*
X-33585001Y60282000I249999J0D01*
G01*
G37*
G36*
G01*
X-33585001Y63407000D02*
X-32284999Y63407000D01*
G75*
G02*
X-32035000Y63157001I0J-249999D01*
G01*
X-32035000Y62331999D01*
G75*
G02*
X-32284999Y62082000I-249999J0D01*
G01*
X-33585001Y62082000D01*
G75*
G02*
X-33835000Y62331999I0J249999D01*
G01*
X-33835000Y63157001D01*
G75*
G02*
X-33585001Y63407000I249999J0D01*
G01*
G37*
%TD*%
%TO.C,C5*%
G36*
G01*
X-33122500Y45707000D02*
X-33122500Y44757000D01*
G75*
G02*
X-33372500Y44507000I-250000J0D01*
G01*
X-34047500Y44507000D01*
G75*
G02*
X-34297500Y44757000I0J250000D01*
G01*
X-34297500Y45707000D01*
G75*
G02*
X-34047500Y45957000I250000J0D01*
G01*
X-33372500Y45957000D01*
G75*
G02*
X-33122500Y45707000I0J-250000D01*
G01*
G37*
G36*
G01*
X-31047500Y45707000D02*
X-31047500Y44757000D01*
G75*
G02*
X-31297500Y44507000I-250000J0D01*
G01*
X-31972500Y44507000D01*
G75*
G02*
X-32222500Y44757000I0J250000D01*
G01*
X-32222500Y45707000D01*
G75*
G02*
X-31972500Y45957000I250000J0D01*
G01*
X-31297500Y45957000D01*
G75*
G02*
X-31047500Y45707000I0J-250000D01*
G01*
G37*
%TD*%
%TO.C,C4*%
G36*
G01*
X-35447500Y30957000D02*
X-35447500Y31907000D01*
G75*
G02*
X-35197500Y32157000I250000J0D01*
G01*
X-34522500Y32157000D01*
G75*
G02*
X-34272500Y31907000I0J-250000D01*
G01*
X-34272500Y30957000D01*
G75*
G02*
X-34522500Y30707000I-250000J0D01*
G01*
X-35197500Y30707000D01*
G75*
G02*
X-35447500Y30957000I0J250000D01*
G01*
G37*
G36*
G01*
X-37522500Y30957000D02*
X-37522500Y31907000D01*
G75*
G02*
X-37272500Y32157000I250000J0D01*
G01*
X-36597500Y32157000D01*
G75*
G02*
X-36347500Y31907000I0J-250000D01*
G01*
X-36347500Y30957000D01*
G75*
G02*
X-36597500Y30707000I-250000J0D01*
G01*
X-37272500Y30707000D01*
G75*
G02*
X-37522500Y30957000I0J250000D01*
G01*
G37*
%TD*%
%TO.C,C3*%
G36*
G01*
X-32022500Y19907000D02*
X-32022500Y20857000D01*
G75*
G02*
X-31772500Y21107000I250000J0D01*
G01*
X-31097500Y21107000D01*
G75*
G02*
X-30847500Y20857000I0J-250000D01*
G01*
X-30847500Y19907000D01*
G75*
G02*
X-31097500Y19657000I-250000J0D01*
G01*
X-31772500Y19657000D01*
G75*
G02*
X-32022500Y19907000I0J250000D01*
G01*
G37*
G36*
G01*
X-34097500Y19907000D02*
X-34097500Y20857000D01*
G75*
G02*
X-33847500Y21107000I250000J0D01*
G01*
X-33172500Y21107000D01*
G75*
G02*
X-32922500Y20857000I0J-250000D01*
G01*
X-32922500Y19907000D01*
G75*
G02*
X-33172500Y19657000I-250000J0D01*
G01*
X-33847500Y19657000D01*
G75*
G02*
X-34097500Y19907000I0J250000D01*
G01*
G37*
%TD*%
%TO.C,C2*%
G36*
G01*
X-20960000Y55244500D02*
X-21910000Y55244500D01*
G75*
G02*
X-22160000Y55494500I0J250000D01*
G01*
X-22160000Y56169500D01*
G75*
G02*
X-21910000Y56419500I250000J0D01*
G01*
X-20960000Y56419500D01*
G75*
G02*
X-20710000Y56169500I0J-250000D01*
G01*
X-20710000Y55494500D01*
G75*
G02*
X-20960000Y55244500I-250000J0D01*
G01*
G37*
G36*
G01*
X-20960000Y53169500D02*
X-21910000Y53169500D01*
G75*
G02*
X-22160000Y53419500I0J250000D01*
G01*
X-22160000Y54094500D01*
G75*
G02*
X-21910000Y54344500I250000J0D01*
G01*
X-20960000Y54344500D01*
G75*
G02*
X-20710000Y54094500I0J-250000D01*
G01*
X-20710000Y53419500D01*
G75*
G02*
X-20960000Y53169500I-250000J0D01*
G01*
G37*
%TD*%
%TO.C,R18*%
G36*
G01*
X-24685000Y13657000D02*
X-24685000Y14907000D01*
G75*
G02*
X-24435000Y15157000I250000J0D01*
G01*
X-23635000Y15157000D01*
G75*
G02*
X-23385000Y14907000I0J-250000D01*
G01*
X-23385000Y13657000D01*
G75*
G02*
X-23635000Y13407000I-250000J0D01*
G01*
X-24435000Y13407000D01*
G75*
G02*
X-24685000Y13657000I0J250000D01*
G01*
G37*
G36*
G01*
X-27785000Y13657000D02*
X-27785000Y14907000D01*
G75*
G02*
X-27535000Y15157000I250000J0D01*
G01*
X-26735000Y15157000D01*
G75*
G02*
X-26485000Y14907000I0J-250000D01*
G01*
X-26485000Y13657000D01*
G75*
G02*
X-26735000Y13407000I-250000J0D01*
G01*
X-27535000Y13407000D01*
G75*
G02*
X-27785000Y13657000I0J250000D01*
G01*
G37*
%TD*%
%TO.C,R17*%
G36*
G01*
X-33335000Y14907000D02*
X-33335000Y13657000D01*
G75*
G02*
X-33585000Y13407000I-250000J0D01*
G01*
X-34385000Y13407000D01*
G75*
G02*
X-34635000Y13657000I0J250000D01*
G01*
X-34635000Y14907000D01*
G75*
G02*
X-34385000Y15157000I250000J0D01*
G01*
X-33585000Y15157000D01*
G75*
G02*
X-33335000Y14907000I0J-250000D01*
G01*
G37*
G36*
G01*
X-30235000Y14907000D02*
X-30235000Y13657000D01*
G75*
G02*
X-30485000Y13407000I-250000J0D01*
G01*
X-31285000Y13407000D01*
G75*
G02*
X-31535000Y13657000I0J250000D01*
G01*
X-31535000Y14907000D01*
G75*
G02*
X-31285000Y15157000I250000J0D01*
G01*
X-30485000Y15157000D01*
G75*
G02*
X-30235000Y14907000I0J-250000D01*
G01*
G37*
%TD*%
%TO.C,U3*%
G36*
G01*
X-27873000Y51191000D02*
X-27873000Y50991000D01*
G75*
G02*
X-27973000Y50891000I-100000J0D01*
G01*
X-29248000Y50891000D01*
G75*
G02*
X-29348000Y50991000I0J100000D01*
G01*
X-29348000Y51191000D01*
G75*
G02*
X-29248000Y51291000I100000J0D01*
G01*
X-27973000Y51291000D01*
G75*
G02*
X-27873000Y51191000I0J-100000D01*
G01*
G37*
G36*
G01*
X-27873000Y50541000D02*
X-27873000Y50341000D01*
G75*
G02*
X-27973000Y50241000I-100000J0D01*
G01*
X-29248000Y50241000D01*
G75*
G02*
X-29348000Y50341000I0J100000D01*
G01*
X-29348000Y50541000D01*
G75*
G02*
X-29248000Y50641000I100000J0D01*
G01*
X-27973000Y50641000D01*
G75*
G02*
X-27873000Y50541000I0J-100000D01*
G01*
G37*
G36*
G01*
X-27873000Y49891000D02*
X-27873000Y49691000D01*
G75*
G02*
X-27973000Y49591000I-100000J0D01*
G01*
X-29248000Y49591000D01*
G75*
G02*
X-29348000Y49691000I0J100000D01*
G01*
X-29348000Y49891000D01*
G75*
G02*
X-29248000Y49991000I100000J0D01*
G01*
X-27973000Y49991000D01*
G75*
G02*
X-27873000Y49891000I0J-100000D01*
G01*
G37*
G36*
G01*
X-27873000Y49241000D02*
X-27873000Y49041000D01*
G75*
G02*
X-27973000Y48941000I-100000J0D01*
G01*
X-29248000Y48941000D01*
G75*
G02*
X-29348000Y49041000I0J100000D01*
G01*
X-29348000Y49241000D01*
G75*
G02*
X-29248000Y49341000I100000J0D01*
G01*
X-27973000Y49341000D01*
G75*
G02*
X-27873000Y49241000I0J-100000D01*
G01*
G37*
G36*
G01*
X-27873000Y48591000D02*
X-27873000Y48391000D01*
G75*
G02*
X-27973000Y48291000I-100000J0D01*
G01*
X-29248000Y48291000D01*
G75*
G02*
X-29348000Y48391000I0J100000D01*
G01*
X-29348000Y48591000D01*
G75*
G02*
X-29248000Y48691000I100000J0D01*
G01*
X-27973000Y48691000D01*
G75*
G02*
X-27873000Y48591000I0J-100000D01*
G01*
G37*
G36*
G01*
X-27873000Y47941000D02*
X-27873000Y47741000D01*
G75*
G02*
X-27973000Y47641000I-100000J0D01*
G01*
X-29248000Y47641000D01*
G75*
G02*
X-29348000Y47741000I0J100000D01*
G01*
X-29348000Y47941000D01*
G75*
G02*
X-29248000Y48041000I100000J0D01*
G01*
X-27973000Y48041000D01*
G75*
G02*
X-27873000Y47941000I0J-100000D01*
G01*
G37*
G36*
G01*
X-27873000Y47291000D02*
X-27873000Y47091000D01*
G75*
G02*
X-27973000Y46991000I-100000J0D01*
G01*
X-29248000Y46991000D01*
G75*
G02*
X-29348000Y47091000I0J100000D01*
G01*
X-29348000Y47291000D01*
G75*
G02*
X-29248000Y47391000I100000J0D01*
G01*
X-27973000Y47391000D01*
G75*
G02*
X-27873000Y47291000I0J-100000D01*
G01*
G37*
G36*
G01*
X-27873000Y46641000D02*
X-27873000Y46441000D01*
G75*
G02*
X-27973000Y46341000I-100000J0D01*
G01*
X-29248000Y46341000D01*
G75*
G02*
X-29348000Y46441000I0J100000D01*
G01*
X-29348000Y46641000D01*
G75*
G02*
X-29248000Y46741000I100000J0D01*
G01*
X-27973000Y46741000D01*
G75*
G02*
X-27873000Y46641000I0J-100000D01*
G01*
G37*
G36*
G01*
X-27873000Y45991000D02*
X-27873000Y45791000D01*
G75*
G02*
X-27973000Y45691000I-100000J0D01*
G01*
X-29248000Y45691000D01*
G75*
G02*
X-29348000Y45791000I0J100000D01*
G01*
X-29348000Y45991000D01*
G75*
G02*
X-29248000Y46091000I100000J0D01*
G01*
X-27973000Y46091000D01*
G75*
G02*
X-27873000Y45991000I0J-100000D01*
G01*
G37*
G36*
G01*
X-27873000Y45341000D02*
X-27873000Y45141000D01*
G75*
G02*
X-27973000Y45041000I-100000J0D01*
G01*
X-29248000Y45041000D01*
G75*
G02*
X-29348000Y45141000I0J100000D01*
G01*
X-29348000Y45341000D01*
G75*
G02*
X-29248000Y45441000I100000J0D01*
G01*
X-27973000Y45441000D01*
G75*
G02*
X-27873000Y45341000I0J-100000D01*
G01*
G37*
G36*
G01*
X-22148000Y45341000D02*
X-22148000Y45141000D01*
G75*
G02*
X-22248000Y45041000I-100000J0D01*
G01*
X-23523000Y45041000D01*
G75*
G02*
X-23623000Y45141000I0J100000D01*
G01*
X-23623000Y45341000D01*
G75*
G02*
X-23523000Y45441000I100000J0D01*
G01*
X-22248000Y45441000D01*
G75*
G02*
X-22148000Y45341000I0J-100000D01*
G01*
G37*
G36*
G01*
X-22148000Y45991000D02*
X-22148000Y45791000D01*
G75*
G02*
X-22248000Y45691000I-100000J0D01*
G01*
X-23523000Y45691000D01*
G75*
G02*
X-23623000Y45791000I0J100000D01*
G01*
X-23623000Y45991000D01*
G75*
G02*
X-23523000Y46091000I100000J0D01*
G01*
X-22248000Y46091000D01*
G75*
G02*
X-22148000Y45991000I0J-100000D01*
G01*
G37*
G36*
G01*
X-22148000Y46641000D02*
X-22148000Y46441000D01*
G75*
G02*
X-22248000Y46341000I-100000J0D01*
G01*
X-23523000Y46341000D01*
G75*
G02*
X-23623000Y46441000I0J100000D01*
G01*
X-23623000Y46641000D01*
G75*
G02*
X-23523000Y46741000I100000J0D01*
G01*
X-22248000Y46741000D01*
G75*
G02*
X-22148000Y46641000I0J-100000D01*
G01*
G37*
G36*
G01*
X-22148000Y47291000D02*
X-22148000Y47091000D01*
G75*
G02*
X-22248000Y46991000I-100000J0D01*
G01*
X-23523000Y46991000D01*
G75*
G02*
X-23623000Y47091000I0J100000D01*
G01*
X-23623000Y47291000D01*
G75*
G02*
X-23523000Y47391000I100000J0D01*
G01*
X-22248000Y47391000D01*
G75*
G02*
X-22148000Y47291000I0J-100000D01*
G01*
G37*
G36*
G01*
X-22148000Y47941000D02*
X-22148000Y47741000D01*
G75*
G02*
X-22248000Y47641000I-100000J0D01*
G01*
X-23523000Y47641000D01*
G75*
G02*
X-23623000Y47741000I0J100000D01*
G01*
X-23623000Y47941000D01*
G75*
G02*
X-23523000Y48041000I100000J0D01*
G01*
X-22248000Y48041000D01*
G75*
G02*
X-22148000Y47941000I0J-100000D01*
G01*
G37*
G36*
G01*
X-22148000Y48591000D02*
X-22148000Y48391000D01*
G75*
G02*
X-22248000Y48291000I-100000J0D01*
G01*
X-23523000Y48291000D01*
G75*
G02*
X-23623000Y48391000I0J100000D01*
G01*
X-23623000Y48591000D01*
G75*
G02*
X-23523000Y48691000I100000J0D01*
G01*
X-22248000Y48691000D01*
G75*
G02*
X-22148000Y48591000I0J-100000D01*
G01*
G37*
G36*
G01*
X-22148000Y49241000D02*
X-22148000Y49041000D01*
G75*
G02*
X-22248000Y48941000I-100000J0D01*
G01*
X-23523000Y48941000D01*
G75*
G02*
X-23623000Y49041000I0J100000D01*
G01*
X-23623000Y49241000D01*
G75*
G02*
X-23523000Y49341000I100000J0D01*
G01*
X-22248000Y49341000D01*
G75*
G02*
X-22148000Y49241000I0J-100000D01*
G01*
G37*
G36*
G01*
X-22148000Y49891000D02*
X-22148000Y49691000D01*
G75*
G02*
X-22248000Y49591000I-100000J0D01*
G01*
X-23523000Y49591000D01*
G75*
G02*
X-23623000Y49691000I0J100000D01*
G01*
X-23623000Y49891000D01*
G75*
G02*
X-23523000Y49991000I100000J0D01*
G01*
X-22248000Y49991000D01*
G75*
G02*
X-22148000Y49891000I0J-100000D01*
G01*
G37*
G36*
G01*
X-22148000Y50541000D02*
X-22148000Y50341000D01*
G75*
G02*
X-22248000Y50241000I-100000J0D01*
G01*
X-23523000Y50241000D01*
G75*
G02*
X-23623000Y50341000I0J100000D01*
G01*
X-23623000Y50541000D01*
G75*
G02*
X-23523000Y50641000I100000J0D01*
G01*
X-22248000Y50641000D01*
G75*
G02*
X-22148000Y50541000I0J-100000D01*
G01*
G37*
G36*
G01*
X-22148000Y51191000D02*
X-22148000Y50991000D01*
G75*
G02*
X-22248000Y50891000I-100000J0D01*
G01*
X-23523000Y50891000D01*
G75*
G02*
X-23623000Y50991000I0J100000D01*
G01*
X-23623000Y51191000D01*
G75*
G02*
X-23523000Y51291000I100000J0D01*
G01*
X-22248000Y51291000D01*
G75*
G02*
X-22148000Y51191000I0J-100000D01*
G01*
G37*
%TD*%
%TO.C,U1*%
G36*
G01*
X-24092500Y3022000D02*
X-24092500Y3222000D01*
G75*
G02*
X-23992500Y3322000I100000J0D01*
G01*
X-21792500Y3322000D01*
G75*
G02*
X-21692500Y3222000I0J-100000D01*
G01*
X-21692500Y3022000D01*
G75*
G02*
X-21792500Y2922000I-100000J0D01*
G01*
X-23992500Y2922000D01*
G75*
G02*
X-24092500Y3022000I0J100000D01*
G01*
G37*
G36*
G01*
X-24092500Y3672000D02*
X-24092500Y3872000D01*
G75*
G02*
X-23992500Y3972000I100000J0D01*
G01*
X-21792500Y3972000D01*
G75*
G02*
X-21692500Y3872000I0J-100000D01*
G01*
X-21692500Y3672000D01*
G75*
G02*
X-21792500Y3572000I-100000J0D01*
G01*
X-23992500Y3572000D01*
G75*
G02*
X-24092500Y3672000I0J100000D01*
G01*
G37*
G36*
G01*
X-24092500Y4322000D02*
X-24092500Y4522000D01*
G75*
G02*
X-23992500Y4622000I100000J0D01*
G01*
X-21792500Y4622000D01*
G75*
G02*
X-21692500Y4522000I0J-100000D01*
G01*
X-21692500Y4322000D01*
G75*
G02*
X-21792500Y4222000I-100000J0D01*
G01*
X-23992500Y4222000D01*
G75*
G02*
X-24092500Y4322000I0J100000D01*
G01*
G37*
G36*
G01*
X-24092500Y4972000D02*
X-24092500Y5172000D01*
G75*
G02*
X-23992500Y5272000I100000J0D01*
G01*
X-21792500Y5272000D01*
G75*
G02*
X-21692500Y5172000I0J-100000D01*
G01*
X-21692500Y4972000D01*
G75*
G02*
X-21792500Y4872000I-100000J0D01*
G01*
X-23992500Y4872000D01*
G75*
G02*
X-24092500Y4972000I0J100000D01*
G01*
G37*
G36*
G01*
X-27517500Y4972000D02*
X-27517500Y5172000D01*
G75*
G02*
X-27417500Y5272000I100000J0D01*
G01*
X-25217500Y5272000D01*
G75*
G02*
X-25117500Y5172000I0J-100000D01*
G01*
X-25117500Y4972000D01*
G75*
G02*
X-25217500Y4872000I-100000J0D01*
G01*
X-27417500Y4872000D01*
G75*
G02*
X-27517500Y4972000I0J100000D01*
G01*
G37*
G36*
G01*
X-27517500Y4322000D02*
X-27517500Y4522000D01*
G75*
G02*
X-27417500Y4622000I100000J0D01*
G01*
X-25217500Y4622000D01*
G75*
G02*
X-25117500Y4522000I0J-100000D01*
G01*
X-25117500Y4322000D01*
G75*
G02*
X-25217500Y4222000I-100000J0D01*
G01*
X-27417500Y4222000D01*
G75*
G02*
X-27517500Y4322000I0J100000D01*
G01*
G37*
G36*
G01*
X-27517500Y3672000D02*
X-27517500Y3872000D01*
G75*
G02*
X-27417500Y3972000I100000J0D01*
G01*
X-25217500Y3972000D01*
G75*
G02*
X-25117500Y3872000I0J-100000D01*
G01*
X-25117500Y3672000D01*
G75*
G02*
X-25217500Y3572000I-100000J0D01*
G01*
X-27417500Y3572000D01*
G75*
G02*
X-27517500Y3672000I0J100000D01*
G01*
G37*
G36*
G01*
X-27517500Y3022000D02*
X-27517500Y3222000D01*
G75*
G02*
X-27417500Y3322000I100000J0D01*
G01*
X-25217500Y3322000D01*
G75*
G02*
X-25117500Y3222000I0J-100000D01*
G01*
X-25117500Y3022000D01*
G75*
G02*
X-25217500Y2922000I-100000J0D01*
G01*
X-27417500Y2922000D01*
G75*
G02*
X-27517500Y3022000I0J100000D01*
G01*
G37*
%TD*%
%TO.C,R8*%
G36*
G01*
X-27334999Y34932000D02*
X-28235001Y34932000D01*
G75*
G02*
X-28485000Y35181999I0J249999D01*
G01*
X-28485000Y35882001D01*
G75*
G02*
X-28235001Y36132000I249999J0D01*
G01*
X-27334999Y36132000D01*
G75*
G02*
X-27085000Y35882001I0J-249999D01*
G01*
X-27085000Y35181999D01*
G75*
G02*
X-27334999Y34932000I-249999J0D01*
G01*
G37*
G36*
G01*
X-27334999Y32932000D02*
X-28235001Y32932000D01*
G75*
G02*
X-28485000Y33181999I0J249999D01*
G01*
X-28485000Y33882001D01*
G75*
G02*
X-28235001Y34132000I249999J0D01*
G01*
X-27334999Y34132000D01*
G75*
G02*
X-27085000Y33882001I0J-249999D01*
G01*
X-27085000Y33181999D01*
G75*
G02*
X-27334999Y32932000I-249999J0D01*
G01*
G37*
%TD*%
%TO.C,R14*%
G36*
G01*
X-39985001Y27597000D02*
X-39084999Y27597000D01*
G75*
G02*
X-38835000Y27347001I0J-249999D01*
G01*
X-38835000Y26646999D01*
G75*
G02*
X-39084999Y26397000I-249999J0D01*
G01*
X-39985001Y26397000D01*
G75*
G02*
X-40235000Y26646999I0J249999D01*
G01*
X-40235000Y27347001D01*
G75*
G02*
X-39985001Y27597000I249999J0D01*
G01*
G37*
G36*
G01*
X-39985001Y29597000D02*
X-39084999Y29597000D01*
G75*
G02*
X-38835000Y29347001I0J-249999D01*
G01*
X-38835000Y28646999D01*
G75*
G02*
X-39084999Y28397000I-249999J0D01*
G01*
X-39985001Y28397000D01*
G75*
G02*
X-40235000Y28646999I0J249999D01*
G01*
X-40235000Y29347001D01*
G75*
G02*
X-39985001Y29597000I249999J0D01*
G01*
G37*
%TD*%
%TO.C,R13*%
G36*
G01*
X-39985001Y23755000D02*
X-39084999Y23755000D01*
G75*
G02*
X-38835000Y23505001I0J-249999D01*
G01*
X-38835000Y22804999D01*
G75*
G02*
X-39084999Y22555000I-249999J0D01*
G01*
X-39985001Y22555000D01*
G75*
G02*
X-40235000Y22804999I0J249999D01*
G01*
X-40235000Y23505001D01*
G75*
G02*
X-39985001Y23755000I249999J0D01*
G01*
G37*
G36*
G01*
X-39985001Y25755000D02*
X-39084999Y25755000D01*
G75*
G02*
X-38835000Y25505001I0J-249999D01*
G01*
X-38835000Y24804999D01*
G75*
G02*
X-39084999Y24555000I-249999J0D01*
G01*
X-39985001Y24555000D01*
G75*
G02*
X-40235000Y24804999I0J249999D01*
G01*
X-40235000Y25505001D01*
G75*
G02*
X-39985001Y25755000I249999J0D01*
G01*
G37*
%TD*%
%TO.C,R7*%
G36*
G01*
X-29384999Y34932000D02*
X-30285001Y34932000D01*
G75*
G02*
X-30535000Y35181999I0J249999D01*
G01*
X-30535000Y35882001D01*
G75*
G02*
X-30285001Y36132000I249999J0D01*
G01*
X-29384999Y36132000D01*
G75*
G02*
X-29135000Y35882001I0J-249999D01*
G01*
X-29135000Y35181999D01*
G75*
G02*
X-29384999Y34932000I-249999J0D01*
G01*
G37*
G36*
G01*
X-29384999Y32932000D02*
X-30285001Y32932000D01*
G75*
G02*
X-30535000Y33181999I0J249999D01*
G01*
X-30535000Y33882001D01*
G75*
G02*
X-30285001Y34132000I249999J0D01*
G01*
X-29384999Y34132000D01*
G75*
G02*
X-29135000Y33882001I0J-249999D01*
G01*
X-29135000Y33181999D01*
G75*
G02*
X-29384999Y32932000I-249999J0D01*
G01*
G37*
%TD*%
%TO.C,U2*%
G36*
G01*
X-34488000Y23181000D02*
X-34288000Y23181000D01*
G75*
G02*
X-34188000Y23081000I0J-100000D01*
G01*
X-34188000Y21806000D01*
G75*
G02*
X-34288000Y21706000I-100000J0D01*
G01*
X-34488000Y21706000D01*
G75*
G02*
X-34588000Y21806000I0J100000D01*
G01*
X-34588000Y23081000D01*
G75*
G02*
X-34488000Y23181000I100000J0D01*
G01*
G37*
G36*
G01*
X-33838000Y23181000D02*
X-33638000Y23181000D01*
G75*
G02*
X-33538000Y23081000I0J-100000D01*
G01*
X-33538000Y21806000D01*
G75*
G02*
X-33638000Y21706000I-100000J0D01*
G01*
X-33838000Y21706000D01*
G75*
G02*
X-33938000Y21806000I0J100000D01*
G01*
X-33938000Y23081000D01*
G75*
G02*
X-33838000Y23181000I100000J0D01*
G01*
G37*
G36*
G01*
X-33188000Y23181000D02*
X-32988000Y23181000D01*
G75*
G02*
X-32888000Y23081000I0J-100000D01*
G01*
X-32888000Y21806000D01*
G75*
G02*
X-32988000Y21706000I-100000J0D01*
G01*
X-33188000Y21706000D01*
G75*
G02*
X-33288000Y21806000I0J100000D01*
G01*
X-33288000Y23081000D01*
G75*
G02*
X-33188000Y23181000I100000J0D01*
G01*
G37*
G36*
G01*
X-32538000Y23181000D02*
X-32338000Y23181000D01*
G75*
G02*
X-32238000Y23081000I0J-100000D01*
G01*
X-32238000Y21806000D01*
G75*
G02*
X-32338000Y21706000I-100000J0D01*
G01*
X-32538000Y21706000D01*
G75*
G02*
X-32638000Y21806000I0J100000D01*
G01*
X-32638000Y23081000D01*
G75*
G02*
X-32538000Y23181000I100000J0D01*
G01*
G37*
G36*
G01*
X-31888000Y23181000D02*
X-31688000Y23181000D01*
G75*
G02*
X-31588000Y23081000I0J-100000D01*
G01*
X-31588000Y21806000D01*
G75*
G02*
X-31688000Y21706000I-100000J0D01*
G01*
X-31888000Y21706000D01*
G75*
G02*
X-31988000Y21806000I0J100000D01*
G01*
X-31988000Y23081000D01*
G75*
G02*
X-31888000Y23181000I100000J0D01*
G01*
G37*
G36*
G01*
X-31238000Y23181000D02*
X-31038000Y23181000D01*
G75*
G02*
X-30938000Y23081000I0J-100000D01*
G01*
X-30938000Y21806000D01*
G75*
G02*
X-31038000Y21706000I-100000J0D01*
G01*
X-31238000Y21706000D01*
G75*
G02*
X-31338000Y21806000I0J100000D01*
G01*
X-31338000Y23081000D01*
G75*
G02*
X-31238000Y23181000I100000J0D01*
G01*
G37*
G36*
G01*
X-30588000Y23181000D02*
X-30388000Y23181000D01*
G75*
G02*
X-30288000Y23081000I0J-100000D01*
G01*
X-30288000Y21806000D01*
G75*
G02*
X-30388000Y21706000I-100000J0D01*
G01*
X-30588000Y21706000D01*
G75*
G02*
X-30688000Y21806000I0J100000D01*
G01*
X-30688000Y23081000D01*
G75*
G02*
X-30588000Y23181000I100000J0D01*
G01*
G37*
G36*
G01*
X-29938000Y23181000D02*
X-29738000Y23181000D01*
G75*
G02*
X-29638000Y23081000I0J-100000D01*
G01*
X-29638000Y21806000D01*
G75*
G02*
X-29738000Y21706000I-100000J0D01*
G01*
X-29938000Y21706000D01*
G75*
G02*
X-30038000Y21806000I0J100000D01*
G01*
X-30038000Y23081000D01*
G75*
G02*
X-29938000Y23181000I100000J0D01*
G01*
G37*
G36*
G01*
X-29288000Y23181000D02*
X-29088000Y23181000D01*
G75*
G02*
X-28988000Y23081000I0J-100000D01*
G01*
X-28988000Y21806000D01*
G75*
G02*
X-29088000Y21706000I-100000J0D01*
G01*
X-29288000Y21706000D01*
G75*
G02*
X-29388000Y21806000I0J100000D01*
G01*
X-29388000Y23081000D01*
G75*
G02*
X-29288000Y23181000I100000J0D01*
G01*
G37*
G36*
G01*
X-28638000Y23181000D02*
X-28438000Y23181000D01*
G75*
G02*
X-28338000Y23081000I0J-100000D01*
G01*
X-28338000Y21806000D01*
G75*
G02*
X-28438000Y21706000I-100000J0D01*
G01*
X-28638000Y21706000D01*
G75*
G02*
X-28738000Y21806000I0J100000D01*
G01*
X-28738000Y23081000D01*
G75*
G02*
X-28638000Y23181000I100000J0D01*
G01*
G37*
G36*
G01*
X-28638000Y28906000D02*
X-28438000Y28906000D01*
G75*
G02*
X-28338000Y28806000I0J-100000D01*
G01*
X-28338000Y27531000D01*
G75*
G02*
X-28438000Y27431000I-100000J0D01*
G01*
X-28638000Y27431000D01*
G75*
G02*
X-28738000Y27531000I0J100000D01*
G01*
X-28738000Y28806000D01*
G75*
G02*
X-28638000Y28906000I100000J0D01*
G01*
G37*
G36*
G01*
X-29288000Y28906000D02*
X-29088000Y28906000D01*
G75*
G02*
X-28988000Y28806000I0J-100000D01*
G01*
X-28988000Y27531000D01*
G75*
G02*
X-29088000Y27431000I-100000J0D01*
G01*
X-29288000Y27431000D01*
G75*
G02*
X-29388000Y27531000I0J100000D01*
G01*
X-29388000Y28806000D01*
G75*
G02*
X-29288000Y28906000I100000J0D01*
G01*
G37*
G36*
G01*
X-29938000Y28906000D02*
X-29738000Y28906000D01*
G75*
G02*
X-29638000Y28806000I0J-100000D01*
G01*
X-29638000Y27531000D01*
G75*
G02*
X-29738000Y27431000I-100000J0D01*
G01*
X-29938000Y27431000D01*
G75*
G02*
X-30038000Y27531000I0J100000D01*
G01*
X-30038000Y28806000D01*
G75*
G02*
X-29938000Y28906000I100000J0D01*
G01*
G37*
G36*
G01*
X-30588000Y28906000D02*
X-30388000Y28906000D01*
G75*
G02*
X-30288000Y28806000I0J-100000D01*
G01*
X-30288000Y27531000D01*
G75*
G02*
X-30388000Y27431000I-100000J0D01*
G01*
X-30588000Y27431000D01*
G75*
G02*
X-30688000Y27531000I0J100000D01*
G01*
X-30688000Y28806000D01*
G75*
G02*
X-30588000Y28906000I100000J0D01*
G01*
G37*
G36*
G01*
X-31238000Y28906000D02*
X-31038000Y28906000D01*
G75*
G02*
X-30938000Y28806000I0J-100000D01*
G01*
X-30938000Y27531000D01*
G75*
G02*
X-31038000Y27431000I-100000J0D01*
G01*
X-31238000Y27431000D01*
G75*
G02*
X-31338000Y27531000I0J100000D01*
G01*
X-31338000Y28806000D01*
G75*
G02*
X-31238000Y28906000I100000J0D01*
G01*
G37*
G36*
G01*
X-31888000Y28906000D02*
X-31688000Y28906000D01*
G75*
G02*
X-31588000Y28806000I0J-100000D01*
G01*
X-31588000Y27531000D01*
G75*
G02*
X-31688000Y27431000I-100000J0D01*
G01*
X-31888000Y27431000D01*
G75*
G02*
X-31988000Y27531000I0J100000D01*
G01*
X-31988000Y28806000D01*
G75*
G02*
X-31888000Y28906000I100000J0D01*
G01*
G37*
G36*
G01*
X-32538000Y28906000D02*
X-32338000Y28906000D01*
G75*
G02*
X-32238000Y28806000I0J-100000D01*
G01*
X-32238000Y27531000D01*
G75*
G02*
X-32338000Y27431000I-100000J0D01*
G01*
X-32538000Y27431000D01*
G75*
G02*
X-32638000Y27531000I0J100000D01*
G01*
X-32638000Y28806000D01*
G75*
G02*
X-32538000Y28906000I100000J0D01*
G01*
G37*
G36*
G01*
X-33188000Y28906000D02*
X-32988000Y28906000D01*
G75*
G02*
X-32888000Y28806000I0J-100000D01*
G01*
X-32888000Y27531000D01*
G75*
G02*
X-32988000Y27431000I-100000J0D01*
G01*
X-33188000Y27431000D01*
G75*
G02*
X-33288000Y27531000I0J100000D01*
G01*
X-33288000Y28806000D01*
G75*
G02*
X-33188000Y28906000I100000J0D01*
G01*
G37*
G36*
G01*
X-33838000Y28906000D02*
X-33638000Y28906000D01*
G75*
G02*
X-33538000Y28806000I0J-100000D01*
G01*
X-33538000Y27531000D01*
G75*
G02*
X-33638000Y27431000I-100000J0D01*
G01*
X-33838000Y27431000D01*
G75*
G02*
X-33938000Y27531000I0J100000D01*
G01*
X-33938000Y28806000D01*
G75*
G02*
X-33838000Y28906000I100000J0D01*
G01*
G37*
G36*
G01*
X-34488000Y28906000D02*
X-34288000Y28906000D01*
G75*
G02*
X-34188000Y28806000I0J-100000D01*
G01*
X-34188000Y27531000D01*
G75*
G02*
X-34288000Y27431000I-100000J0D01*
G01*
X-34488000Y27431000D01*
G75*
G02*
X-34588000Y27531000I0J100000D01*
G01*
X-34588000Y28806000D01*
G75*
G02*
X-34488000Y28906000I100000J0D01*
G01*
G37*
%TD*%
%TO.C,C1*%
G36*
G01*
X-19710000Y4650000D02*
X-20660000Y4650000D01*
G75*
G02*
X-20910000Y4900000I0J250000D01*
G01*
X-20910000Y5575000D01*
G75*
G02*
X-20660000Y5825000I250000J0D01*
G01*
X-19710000Y5825000D01*
G75*
G02*
X-19460000Y5575000I0J-250000D01*
G01*
X-19460000Y4900000D01*
G75*
G02*
X-19710000Y4650000I-250000J0D01*
G01*
G37*
G36*
G01*
X-19710000Y2575000D02*
X-20660000Y2575000D01*
G75*
G02*
X-20910000Y2825000I0J250000D01*
G01*
X-20910000Y3500000D01*
G75*
G02*
X-20660000Y3750000I250000J0D01*
G01*
X-19710000Y3750000D01*
G75*
G02*
X-19460000Y3500000I0J-250000D01*
G01*
X-19460000Y2825000D01*
G75*
G02*
X-19710000Y2575000I-250000J0D01*
G01*
G37*
%TD*%
%TO.C,R12*%
G36*
G01*
X-33335000Y8857001D02*
X-33335000Y7606999D01*
G75*
G02*
X-33584999Y7357000I-249999J0D01*
G01*
X-34385001Y7357000D01*
G75*
G02*
X-34635000Y7606999I0J249999D01*
G01*
X-34635000Y8857001D01*
G75*
G02*
X-34385001Y9107000I249999J0D01*
G01*
X-33584999Y9107000D01*
G75*
G02*
X-33335000Y8857001I0J-249999D01*
G01*
G37*
G36*
G01*
X-30235000Y8857001D02*
X-30235000Y7606999D01*
G75*
G02*
X-30484999Y7357000I-249999J0D01*
G01*
X-31285001Y7357000D01*
G75*
G02*
X-31535000Y7606999I0J249999D01*
G01*
X-31535000Y8857001D01*
G75*
G02*
X-31285001Y9107000I249999J0D01*
G01*
X-30484999Y9107000D01*
G75*
G02*
X-30235000Y8857001I0J-249999D01*
G01*
G37*
%TD*%
%TO.C,R11*%
G36*
G01*
X-24685000Y7606999D02*
X-24685000Y8857001D01*
G75*
G02*
X-24435001Y9107000I249999J0D01*
G01*
X-23634999Y9107000D01*
G75*
G02*
X-23385000Y8857001I0J-249999D01*
G01*
X-23385000Y7606999D01*
G75*
G02*
X-23634999Y7357000I-249999J0D01*
G01*
X-24435001Y7357000D01*
G75*
G02*
X-24685000Y7606999I0J249999D01*
G01*
G37*
G36*
G01*
X-27785000Y7606999D02*
X-27785000Y8857001D01*
G75*
G02*
X-27535001Y9107000I249999J0D01*
G01*
X-26734999Y9107000D01*
G75*
G02*
X-26485000Y8857001I0J-249999D01*
G01*
X-26485000Y7606999D01*
G75*
G02*
X-26734999Y7357000I-249999J0D01*
G01*
X-27535001Y7357000D01*
G75*
G02*
X-27785000Y7606999I0J249999D01*
G01*
G37*
%TD*%
%TO.C,R10*%
G36*
G01*
X-31652501Y3382000D02*
X-30402499Y3382000D01*
G75*
G02*
X-30152500Y3132001I0J-249999D01*
G01*
X-30152500Y2331999D01*
G75*
G02*
X-30402499Y2082000I-249999J0D01*
G01*
X-31652501Y2082000D01*
G75*
G02*
X-31902500Y2331999I0J249999D01*
G01*
X-31902500Y3132001D01*
G75*
G02*
X-31652501Y3382000I249999J0D01*
G01*
G37*
G36*
G01*
X-31652501Y6482000D02*
X-30402499Y6482000D01*
G75*
G02*
X-30152500Y6232001I0J-249999D01*
G01*
X-30152500Y5431999D01*
G75*
G02*
X-30402499Y5182000I-249999J0D01*
G01*
X-31652501Y5182000D01*
G75*
G02*
X-31902500Y5431999I0J249999D01*
G01*
X-31902500Y6232001D01*
G75*
G02*
X-31652501Y6482000I249999J0D01*
G01*
G37*
%TD*%
%TO.C,R9*%
G36*
G01*
X-34410001Y3382000D02*
X-33159999Y3382000D01*
G75*
G02*
X-32910000Y3132001I0J-249999D01*
G01*
X-32910000Y2331999D01*
G75*
G02*
X-33159999Y2082000I-249999J0D01*
G01*
X-34410001Y2082000D01*
G75*
G02*
X-34660000Y2331999I0J249999D01*
G01*
X-34660000Y3132001D01*
G75*
G02*
X-34410001Y3382000I249999J0D01*
G01*
G37*
G36*
G01*
X-34410001Y6482000D02*
X-33159999Y6482000D01*
G75*
G02*
X-32910000Y6232001I0J-249999D01*
G01*
X-32910000Y5431999D01*
G75*
G02*
X-33159999Y5182000I-249999J0D01*
G01*
X-34410001Y5182000D01*
G75*
G02*
X-34660000Y5431999I0J249999D01*
G01*
X-34660000Y6232001D01*
G75*
G02*
X-34410001Y6482000I249999J0D01*
G01*
G37*
%TD*%
D15*
%TO.C,Q1*%
X-2253000Y3208000D03*
X-4253000Y4158000D03*
X-4253000Y2258000D03*
%TD*%
%TO.C,R6*%
G36*
G01*
X-6100000Y50442001D02*
X-6100000Y49191999D01*
G75*
G02*
X-6349999Y48942000I-249999J0D01*
G01*
X-7150001Y48942000D01*
G75*
G02*
X-7400000Y49191999I0J249999D01*
G01*
X-7400000Y50442001D01*
G75*
G02*
X-7150001Y50692000I249999J0D01*
G01*
X-6349999Y50692000D01*
G75*
G02*
X-6100000Y50442001I0J-249999D01*
G01*
G37*
G36*
G01*
X-3000000Y50442001D02*
X-3000000Y49191999D01*
G75*
G02*
X-3249999Y48942000I-249999J0D01*
G01*
X-4050001Y48942000D01*
G75*
G02*
X-4300000Y49191999I0J249999D01*
G01*
X-4300000Y50442001D01*
G75*
G02*
X-4050001Y50692000I249999J0D01*
G01*
X-3249999Y50692000D01*
G75*
G02*
X-3000000Y50442001I0J-249999D01*
G01*
G37*
%TD*%
%TO.C,R5*%
G36*
G01*
X-4300000Y32046999D02*
X-4300000Y33297001D01*
G75*
G02*
X-4050001Y33547000I249999J0D01*
G01*
X-3249999Y33547000D01*
G75*
G02*
X-3000000Y33297001I0J-249999D01*
G01*
X-3000000Y32046999D01*
G75*
G02*
X-3249999Y31797000I-249999J0D01*
G01*
X-4050001Y31797000D01*
G75*
G02*
X-4300000Y32046999I0J249999D01*
G01*
G37*
G36*
G01*
X-7400000Y32046999D02*
X-7400000Y33297001D01*
G75*
G02*
X-7150001Y33547000I249999J0D01*
G01*
X-6349999Y33547000D01*
G75*
G02*
X-6100000Y33297001I0J-249999D01*
G01*
X-6100000Y32046999D01*
G75*
G02*
X-6349999Y31797000I-249999J0D01*
G01*
X-7150001Y31797000D01*
G75*
G02*
X-7400000Y32046999I0J249999D01*
G01*
G37*
%TD*%
%TO.C,R3*%
G36*
G01*
X-3386001Y23618000D02*
X-2135999Y23618000D01*
G75*
G02*
X-1886000Y23368001I0J-249999D01*
G01*
X-1886000Y22567999D01*
G75*
G02*
X-2135999Y22318000I-249999J0D01*
G01*
X-3386001Y22318000D01*
G75*
G02*
X-3636000Y22567999I0J249999D01*
G01*
X-3636000Y23368001D01*
G75*
G02*
X-3386001Y23618000I249999J0D01*
G01*
G37*
G36*
G01*
X-3386001Y26718000D02*
X-2135999Y26718000D01*
G75*
G02*
X-1886000Y26468001I0J-249999D01*
G01*
X-1886000Y25667999D01*
G75*
G02*
X-2135999Y25418000I-249999J0D01*
G01*
X-3386001Y25418000D01*
G75*
G02*
X-3636000Y25667999I0J249999D01*
G01*
X-3636000Y26468001D01*
G75*
G02*
X-3386001Y26718000I249999J0D01*
G01*
G37*
%TD*%
%TO.C,R2*%
G36*
G01*
X-10660001Y3782000D02*
X-9409999Y3782000D01*
G75*
G02*
X-9160000Y3532001I0J-249999D01*
G01*
X-9160000Y2731999D01*
G75*
G02*
X-9409999Y2482000I-249999J0D01*
G01*
X-10660001Y2482000D01*
G75*
G02*
X-10910000Y2731999I0J249999D01*
G01*
X-10910000Y3532001D01*
G75*
G02*
X-10660001Y3782000I249999J0D01*
G01*
G37*
G36*
G01*
X-10660001Y6882000D02*
X-9409999Y6882000D01*
G75*
G02*
X-9160000Y6632001I0J-249999D01*
G01*
X-9160000Y5831999D01*
G75*
G02*
X-9409999Y5582000I-249999J0D01*
G01*
X-10660001Y5582000D01*
G75*
G02*
X-10910000Y5831999I0J249999D01*
G01*
X-10910000Y6632001D01*
G75*
G02*
X-10660001Y6882000I249999J0D01*
G01*
G37*
%TD*%
%TO.C,R1*%
G36*
G01*
X-2459999Y8882000D02*
X-3710001Y8882000D01*
G75*
G02*
X-3960000Y9131999I0J249999D01*
G01*
X-3960000Y9932001D01*
G75*
G02*
X-3710001Y10182000I249999J0D01*
G01*
X-2459999Y10182000D01*
G75*
G02*
X-2210000Y9932001I0J-249999D01*
G01*
X-2210000Y9131999D01*
G75*
G02*
X-2459999Y8882000I-249999J0D01*
G01*
G37*
G36*
G01*
X-2459999Y5782000D02*
X-3710001Y5782000D01*
G75*
G02*
X-3960000Y6031999I0J249999D01*
G01*
X-3960000Y6832001D01*
G75*
G02*
X-3710001Y7082000I249999J0D01*
G01*
X-2459999Y7082000D01*
G75*
G02*
X-2210000Y6832001I0J-249999D01*
G01*
X-2210000Y6031999D01*
G75*
G02*
X-2459999Y5782000I-249999J0D01*
G01*
G37*
%TD*%
D16*
%TO.C,Q2*%
X-8985000Y22175000D03*
X-5935000Y25525000D03*
X-5935000Y22175000D03*
X-8985000Y25525000D03*
D17*
X-9740000Y17550000D03*
X-5180000Y17550000D03*
%TD*%
M02*
